<svg width="295" height="168" viewBox="0 0 295 168" fill="none" xmlns="http://www.w3.org/2000/svg">
<mask id="mask0_30_320" style="mask-type:luminance" maskUnits="userSpaceOnUse" x="0" y="0" width="295" height="168">
<path d="M295 0H0V168H295V0Z" fill="white"/>
</mask>
<g mask="url(#mask0_30_320)">
<path d="M245.253 37.3208C245.253 37.3208 238.319 41.1762 240.315 45.5657C242.311 49.9553 270.653 46.3638 270.653 46.3638C270.653 46.3638 268.657 40.3781 265.065 39.1809C261.472 37.9838 245.253 37.3208 245.253 37.3208Z" fill="#F8AC91"/>
<path d="M242.55 38.3486C243.944 37.443 245.493 36.8026 247.119 36.4597C252.544 35.1453 258.224 35.3224 263.557 36.9723L263.459 36.8928C265.731 38.0916 267.725 39.7541 269.313 41.7726L242.55 38.3486Z" fill="#CCCCCC"/>
<path d="M273.256 57.2258C273.16 58.6584 273.064 60.0896 272.968 61.5196C272.837 64.5146 272.51 67.4978 271.99 70.4503C271.503 72.9204 270.729 75.3706 269.344 77.4736C267.959 79.5726 265.903 81.3084 263.468 81.9469C261.973 82.3051 260.418 82.3391 258.909 82.0467C256.063 80.4305 254.135 82.4976 256.977 84.6006C257.622 85.0771 258.292 85.518 258.985 85.9215L260.274 105.822L236.323 100.635L240.998 74.1615C240.282 73.5112 239.627 72.7965 239.041 72.0265C236.363 68.471 235.441 63.838 235.616 59.3926C235.796 54.9432 236.982 50.6056 238.159 46.3158C238.46 45.1519 238.822 44.005 239.245 42.8799C239.768 43.0954 240.299 43.2909 240.838 43.4545C244.283 44.5001 247.943 44.5839 251.544 44.5799C257.951 44.5759 264.35 44.3258 270.741 43.8297C272.21 46.2467 273.102 48.9694 273.348 51.7867C273.451 53.5995 273.42 55.4175 273.256 57.2258Z" fill="#CCCCCC"/>
<path d="M170.816 111.247L207.689 114.519L208.085 114.555V-42.7265C207.953 -42.8183 207.821 -42.9101 207.689 -43.0018C200.005 -48.3752 191.692 -52.7895 182.936 -56.1465L181.052 -30.1684L180.88 -27.79L179.016 -2.02737L178.441 5.89775L170.884 110.329L170.816 111.247Z" fill="#E6E6E6"/>
<path d="M79.6302 -45.6556C79.3668 -45.488 79.1033 -45.3204 78.8398 -45.1448V114.555L79.6302 114.483L116.104 111.247L116.036 110.329L108.48 5.89766L107.905 -2.02746L106.041 -27.7901L105.869 -30.1684L103.893 -57.4116C95.3716 -54.4589 87.228 -50.513 79.6302 -45.6556Z" fill="#E6E6E6"/>
<path d="M78.8397 -45.145C78.3087 -44.8018 77.7778 -44.4506 77.2549 -44.0955V116.734C77.2549 120.753 79.638 124.121 82.8236 124.978C83.3441 125.119 83.881 125.19 84.4203 125.19H202.899C203.437 125.191 203.973 125.12 204.492 124.978C205.676 124.65 206.749 124.008 207.598 123.119C209.216 121.39 210.1 119.101 210.065 116.734V-41.2981C209.41 -41.781 208.751 -42.2599 208.085 -42.7267C207.953 -42.8185 207.821 -42.9103 207.69 -43.0021V116.734C207.69 117.252 207.629 117.768 207.506 118.27C206.943 120.645 205.087 122.385 202.899 122.385H84.4203C81.7777 122.385 79.6301 119.851 79.6301 116.734V-45.6558C79.3666 -45.4882 79.1031 -45.3206 78.8397 -45.145Z" fill="#E6E6E6"/>
<path d="M168.928 -60.5001C168.138 -60.6957 167.347 -60.8792 166.549 -61.0508V3.51942H168.928V-60.5001Z" fill="#E6E6E6"/>
<path d="M120.771 -61.853C119.976 -61.7053 119.182 -61.5537 118.392 -61.3901V3.51933H120.771V-61.853Z" fill="#E6E6E6"/>
<path d="M52.8691 121.028C52.8686 122.392 53.1301 123.744 53.6396 125.01C53.8352 125.501 54.0688 125.976 54.3382 126.431C54.686 127.024 55.0897 127.583 55.5437 128.099C56.5465 129.241 57.7818 130.157 59.1669 130.784C60.5519 131.411 62.0549 131.735 63.5754 131.734H219.782C222.621 131.734 225.344 130.607 227.352 128.6C229.36 126.593 230.488 123.87 230.488 121.032C230.488 118.193 229.36 115.471 227.352 113.464C225.344 111.457 222.621 110.329 219.782 110.329H63.5754C60.7375 110.332 58.0165 111.46 56.0094 113.466C54.0023 115.471 52.873 118.191 52.8691 121.028Z" fill="#E6E6E6"/>
<path d="M78.4414 5.89865H208.084V-2.02783H78.4414V5.89865Z" fill="#E6E6E6"/>
<path d="M0 127.141C3.46785 131.249 7.21871 135.109 11.2252 138.694H283.703C287.709 135.109 291.46 131.249 294.928 127.141H0Z" fill="#7B7A89"/>
<path d="M73.9131 88.5092V129.436H102.595V88.5092C102.595 88.2149 102.501 87.9281 102.327 87.6911C102.152 87.4541 101.906 87.2793 101.625 87.1924C101.492 87.1486 101.353 87.127 101.214 87.1285H75.2983C75.1166 87.1282 74.9366 87.1636 74.7687 87.2328C74.6007 87.302 74.4481 87.4037 74.3194 87.5319C74.1908 87.6601 74.0887 87.8124 74.0189 87.9801C73.9492 88.1478 73.9133 88.3276 73.9131 88.5092ZM85.1063 102.572C85.1138 101.765 85.4397 100.994 86.0131 100.426C86.5864 99.8579 87.3609 99.5393 88.1681 99.5393C88.9752 99.5393 89.7497 99.8579 90.3231 100.426C90.8965 100.994 91.2224 101.765 91.2299 102.572V107.321C91.2257 108.13 90.9013 108.904 90.3276 109.475C89.7538 110.045 88.9774 110.366 88.1681 110.366C87.3588 110.366 86.5823 110.045 86.0086 109.475C85.4349 108.904 85.1105 108.13 85.1063 107.321V102.572Z" fill="#2F2E41"/>
<path d="M73.8262 128.127V132.074C73.8268 132.278 73.9081 132.474 74.0523 132.619C74.1965 132.764 74.3921 132.846 74.5966 132.848H101.913C102.118 132.847 102.314 132.765 102.458 132.62C102.602 132.475 102.684 132.278 102.683 132.074V128.127H73.8262Z" fill="#7B7A89"/>
<path d="M28.7939 26.8478V101.574C28.7947 102.527 29.1735 103.44 29.8471 104.113C30.5206 104.786 31.434 105.165 32.3866 105.166H143.161C144.114 105.165 145.027 104.786 145.701 104.113C146.375 103.44 146.753 102.527 146.754 101.574V26.8478C146.752 25.8963 146.372 24.9846 145.699 24.3122C145.026 23.6398 144.113 23.2616 143.161 23.2603H32.3866C31.4349 23.2616 30.5223 23.6398 29.849 24.3122C29.1756 24.9846 28.7962 25.8964 28.7939 26.8478Z" fill="#7B7A89"/>
<path d="M31.3916 27.7779V100.652C31.3925 101.161 31.595 101.649 31.9549 102.009C32.3148 102.368 32.8027 102.571 33.3117 102.572H142.238C142.747 102.571 143.235 102.368 143.595 102.009C143.955 101.649 144.157 101.161 144.158 100.652V27.7779C144.158 27.2685 143.956 26.7799 143.596 26.4193C143.236 26.0587 142.748 25.8556 142.238 25.8545H33.3117C32.8021 25.8556 32.3138 26.0587 31.9538 26.4193C31.5938 26.7799 31.3917 27.2685 31.3916 27.7779Z" fill="#F8AC91"/>
<path d="M53.6031 133.778C53.7139 133.916 53.8549 134.029 54.0153 134.105C54.1757 134.182 54.3514 134.221 54.5292 134.22H119.333C119.511 134.22 119.686 134.181 119.846 134.104C120.005 134.028 120.146 133.917 120.258 133.779C120.37 133.642 120.449 133.481 120.491 133.309C120.533 133.137 120.535 132.957 120.499 132.784L119.493 128.007C119.451 127.812 119.362 127.631 119.232 127.48C119.102 127.329 118.937 127.212 118.751 127.141C118.616 127.088 118.472 127.061 118.327 127.062H55.5312C55.3864 127.061 55.2428 127.088 55.108 127.141C54.9218 127.212 54.7564 127.329 54.6267 127.48C54.497 127.631 54.4072 127.812 54.3655 128.007L53.3596 132.784C53.3238 132.957 53.3271 133.136 53.3692 133.308C53.4113 133.48 53.4912 133.64 53.6031 133.778Z" fill="#2F2E41"/>
<path d="M116.065 129.119H117.671C117.779 129.119 117.866 129.032 117.866 128.924V128.117C117.866 128.009 117.779 127.922 117.671 127.922H116.065C115.958 127.922 115.87 128.009 115.87 128.117V128.924C115.87 129.032 115.958 129.119 116.065 129.119Z" fill="#7B7A89"/>
<path d="M112.074 129.119H113.68C113.788 129.119 113.875 129.032 113.875 128.924V128.117C113.875 128.009 113.788 127.922 113.68 127.922H112.074C111.966 127.922 111.879 128.009 111.879 128.117V128.924C111.879 129.032 111.966 129.119 112.074 129.119Z" fill="#7B7A89"/>
<path d="M108.082 129.119H109.688C109.796 129.119 109.883 129.032 109.883 128.924V128.117C109.883 128.009 109.796 127.922 109.688 127.922H108.082C107.974 127.922 107.887 128.009 107.887 128.117V128.924C107.887 129.032 107.974 129.119 108.082 129.119Z" fill="#7B7A89"/>
<path d="M104.09 129.119H105.696C105.803 129.119 105.891 129.032 105.891 128.924V128.117C105.891 128.009 105.803 127.922 105.696 127.922H104.09C103.982 127.922 103.895 128.009 103.895 128.117V128.924C103.895 129.032 103.982 129.119 104.09 129.119Z" fill="#7B7A89"/>
<path d="M100.098 129.119H101.705C101.812 129.119 101.899 129.032 101.899 128.924V128.117C101.899 128.009 101.812 127.922 101.705 127.922H100.098C99.9905 127.922 99.9033 128.009 99.9033 128.117V128.924C99.9033 129.032 99.9905 129.119 100.098 129.119Z" fill="#7B7A89"/>
<path d="M96.1069 129.119H97.7131C97.8208 129.119 97.908 129.032 97.908 128.924V128.117C97.908 128.009 97.8208 127.922 97.7131 127.922H96.1069C95.9993 127.922 95.9121 128.009 95.9121 128.117V128.924C95.9121 129.032 95.9993 129.119 96.1069 129.119Z" fill="#7B7A89"/>
<path d="M92.1148 129.119H93.7209C93.8286 129.119 93.9158 129.032 93.9158 128.924V128.117C93.9158 128.009 93.8286 127.922 93.7209 127.922H92.1148C92.0071 127.922 91.9199 128.009 91.9199 128.117V128.924C91.9199 129.032 92.0071 129.119 92.1148 129.119Z" fill="#7B7A89"/>
<path d="M88.1226 129.119H89.7287C89.8364 129.119 89.9236 129.032 89.9236 128.924V128.117C89.9236 128.009 89.8364 127.922 89.7287 127.922H88.1226C88.0149 127.922 87.9277 128.009 87.9277 128.117V128.924C87.9277 129.032 88.0149 129.119 88.1226 129.119Z" fill="#7B7A89"/>
<path d="M84.1314 129.119H85.7375C85.8452 129.119 85.9324 129.032 85.9324 128.924V128.117C85.9324 128.009 85.8452 127.922 85.7375 127.922H84.1314C84.0237 127.922 83.9365 128.009 83.9365 128.117V128.924C83.9365 129.032 84.0237 129.119 84.1314 129.119Z" fill="#7B7A89"/>
<path d="M80.1392 129.119H81.7454C81.853 129.119 81.9402 129.032 81.9402 128.924V128.117C81.9402 128.009 81.853 127.922 81.7454 127.922H80.1392C80.0315 127.922 79.9443 128.009 79.9443 128.117V128.924C79.9443 129.032 80.0315 129.119 80.1392 129.119Z" fill="#7B7A89"/>
<path d="M76.147 129.119H77.7533C77.8609 129.119 77.948 129.032 77.948 128.924V128.117C77.948 128.009 77.8609 127.922 77.7533 127.922H76.147C76.0394 127.922 75.9521 128.009 75.9521 128.117V128.924C75.9521 129.032 76.0394 129.119 76.147 129.119Z" fill="#7B7A89"/>
<path d="M72.1549 129.119H73.7611C73.8687 129.119 73.956 129.032 73.956 128.924V128.117C73.956 128.009 73.8687 127.922 73.7611 127.922H72.1549C72.0473 127.922 71.96 128.009 71.96 128.117V128.924C71.96 129.032 72.0473 129.119 72.1549 129.119Z" fill="#7B7A89"/>
<path d="M68.1627 129.119H69.7689C69.8765 129.119 69.9638 129.032 69.9638 128.924V128.117C69.9638 128.009 69.8765 127.922 69.7689 127.922H68.1627C68.0551 127.922 67.9678 128.009 67.9678 128.117V128.924C67.9678 129.032 68.0551 129.119 68.1627 129.119Z" fill="#7B7A89"/>
<path d="M64.1715 129.119H65.7777C65.8853 129.119 65.9726 129.032 65.9726 128.924V128.117C65.9726 128.009 65.8853 127.922 65.7777 127.922H64.1715C64.0639 127.922 63.9766 128.009 63.9766 128.117V128.924C63.9766 129.032 64.0639 129.119 64.1715 129.119Z" fill="#7B7A89"/>
<path d="M60.1793 129.119H61.7855C61.8931 129.119 61.9804 129.032 61.9804 128.924V128.117C61.9804 128.009 61.8931 127.922 61.7855 127.922H60.1793C60.0717 127.922 59.9844 128.009 59.9844 128.117V128.924C59.9844 129.032 60.0717 129.119 60.1793 129.119Z" fill="#7B7A89"/>
<path d="M56.1871 129.119H57.7933C57.9009 129.119 57.9882 129.032 57.9882 128.924V128.117C57.9882 128.009 57.9009 127.922 57.7933 127.922H56.1871C56.0795 127.922 55.9922 128.009 55.9922 128.117V128.924C55.9922 129.032 56.0795 129.119 56.1871 129.119Z" fill="#7B7A89"/>
<path d="M116.113 131.114H117.719C117.827 131.114 117.914 131.027 117.914 130.919V130.112C117.914 130.004 117.827 129.917 117.719 129.917H116.113C116.005 129.917 115.918 130.004 115.918 130.112V130.919C115.918 131.027 116.005 131.114 116.113 131.114Z" fill="#7B7A89"/>
<path d="M112.121 131.114H113.727C113.835 131.114 113.922 131.027 113.922 130.919V130.112C113.922 130.004 113.835 129.917 113.727 129.917H112.121C112.013 129.917 111.926 130.004 111.926 130.112V130.919C111.926 131.027 112.013 131.114 112.121 131.114Z" fill="#7B7A89"/>
<path d="M108.13 131.114H109.736C109.843 131.114 109.931 131.027 109.931 130.919V130.112C109.931 130.004 109.843 129.917 109.736 129.917H108.13C108.022 129.917 107.935 130.004 107.935 130.112V130.919C107.935 131.027 108.022 131.114 108.13 131.114Z" fill="#7B7A89"/>
<path d="M104.137 131.114H105.744C105.851 131.114 105.938 131.027 105.938 130.919V130.112C105.938 130.004 105.851 129.917 105.744 129.917H104.137C104.03 129.917 103.943 130.004 103.943 130.112V130.919C103.943 131.027 104.03 131.114 104.137 131.114Z" fill="#7B7A89"/>
<path d="M100.145 131.114H101.751C101.859 131.114 101.946 131.027 101.946 130.919V130.112C101.946 130.004 101.859 129.917 101.751 129.917H100.145C100.038 129.917 99.9502 130.004 99.9502 130.112V130.919C99.9502 131.027 100.038 131.114 100.145 131.114Z" fill="#7B7A89"/>
<path d="M96.1539 131.114H97.7601C97.8677 131.114 97.955 131.027 97.955 130.919V130.112C97.955 130.004 97.8677 129.917 97.7601 129.917H96.1539C96.0463 129.917 95.959 130.004 95.959 130.112V130.919C95.959 131.027 96.0463 131.114 96.1539 131.114Z" fill="#7B7A89"/>
<path d="M92.1616 131.114H93.7678C93.8754 131.114 93.9627 131.027 93.9627 130.919V130.112C93.9627 130.004 93.8754 129.917 93.7678 129.917H92.1616C92.054 129.917 91.9668 130.004 91.9668 130.112V130.919C91.9668 131.027 92.054 131.114 92.1616 131.114Z" fill="#7B7A89"/>
<path d="M88.1694 131.114H89.7756C89.8833 131.114 89.9705 131.027 89.9705 130.919V130.112C89.9705 130.004 89.8833 129.917 89.7756 129.917H88.1694C88.0618 129.917 87.9746 130.004 87.9746 130.112V130.919C87.9746 131.027 88.0618 131.114 88.1694 131.114Z" fill="#7B7A89"/>
<path d="M84.1773 131.114H85.7834C85.8911 131.114 85.9783 131.027 85.9783 130.919V130.112C85.9783 130.004 85.8911 129.917 85.7834 129.917H84.1773C84.0696 129.917 83.9824 130.004 83.9824 130.112V130.919C83.9824 131.027 84.0696 131.114 84.1773 131.114Z" fill="#7B7A89"/>
<path d="M80.1851 131.114H81.7912C81.8989 131.114 81.9861 131.027 81.9861 130.919V130.112C81.9861 130.004 81.8989 129.917 81.7912 129.917H80.1851C80.0774 129.917 79.9902 130.004 79.9902 130.112V130.919C79.9902 131.027 80.0774 131.114 80.1851 131.114Z" fill="#7B7A89"/>
<path d="M76.1939 131.114H77.8C77.9077 131.114 77.9949 131.027 77.9949 130.919V130.112C77.9949 130.004 77.9077 129.917 77.8 129.917H76.1939C76.0862 129.917 75.999 130.004 75.999 130.112V130.919C75.999 131.027 76.0862 131.114 76.1939 131.114Z" fill="#7B7A89"/>
<path d="M72.2017 131.114H73.8079C73.9155 131.114 74.0027 131.027 74.0027 130.919V130.112C74.0027 130.004 73.9155 129.917 73.8079 129.917H72.2017C72.094 129.917 72.0068 130.004 72.0068 130.112V130.919C72.0068 131.027 72.094 131.114 72.2017 131.114Z" fill="#7B7A89"/>
<path d="M68.2105 131.114H69.8166C69.9243 131.114 70.0115 131.027 70.0115 130.919V130.112C70.0115 130.004 69.9243 129.917 69.8166 129.917H68.2105C68.1028 129.917 68.0156 130.004 68.0156 130.112V130.919C68.0156 131.027 68.1028 131.114 68.2105 131.114Z" fill="#7B7A89"/>
<path d="M64.2183 131.114H65.8245C65.9321 131.114 66.0193 131.027 66.0193 130.919V130.112C66.0193 130.004 65.9321 129.917 65.8245 129.917H64.2183C64.1106 129.917 64.0234 130.004 64.0234 130.112V130.919C64.0234 131.027 64.1106 131.114 64.2183 131.114Z" fill="#7B7A89"/>
<path d="M60.2271 131.114H61.8332C61.9409 131.114 62.0281 131.027 62.0281 130.919V130.112C62.0281 130.004 61.9409 129.917 61.8332 129.917H60.2271C60.1194 129.917 60.0322 130.004 60.0322 130.112V130.919C60.0322 131.027 60.1194 131.114 60.2271 131.114Z" fill="#7B7A89"/>
<path d="M56.2349 131.114H57.8411C57.9487 131.114 58.0359 131.027 58.0359 130.919V130.112C58.0359 130.004 57.9487 129.917 57.8411 129.917H56.2349C56.1272 129.917 56.04 130.004 56.04 130.112V130.919C56.04 131.027 56.1272 131.114 56.2349 131.114Z" fill="#7B7A89"/>
<path d="M82.9801 133.508H98.5579C98.6655 133.508 98.7527 133.421 98.7527 133.314V132.506C98.7527 132.398 98.6655 132.311 98.5579 132.311H82.9801C82.8725 132.311 82.7852 132.398 82.7852 132.506V133.314C82.7852 133.421 82.8725 133.508 82.9801 133.508Z" fill="#7B7A89"/>
<path d="M38.7863 35.8928H140.708C140.814 35.8905 140.915 35.8468 140.989 35.771C141.063 35.6953 141.105 35.5936 141.105 35.4876C141.105 35.3817 141.063 35.28 140.989 35.2042C140.915 35.1285 140.814 35.0848 140.708 35.0825H38.7863C38.6803 35.0848 38.5794 35.1285 38.5053 35.2042C38.4311 35.28 38.3896 35.3817 38.3896 35.4876C38.3896 35.5936 38.4311 35.6953 38.5053 35.771C38.5794 35.8468 38.6803 35.8905 38.7863 35.8928Z" fill="#7B7A89"/>
<path d="M133.77 33.0141C135.082 33.0141 136.145 31.9273 136.145 30.5866C136.145 29.246 135.082 28.1592 133.77 28.1592C132.458 28.1592 131.395 29.246 131.395 30.5866C131.395 31.9273 132.458 33.0141 133.77 33.0141Z" fill="#7B7A89"/>
<path d="M125.565 33.0141C126.877 33.0141 127.94 31.9273 127.94 30.5867C127.94 29.246 126.877 28.1592 125.565 28.1592C124.253 28.1592 123.189 29.246 123.189 30.5867C123.189 31.9273 124.253 33.0141 125.565 33.0141Z" fill="#7B7A89"/>
<path d="M117.359 33.0141C118.671 33.0141 119.734 31.9273 119.734 30.5866C119.734 29.246 118.671 28.1592 117.359 28.1592C116.047 28.1592 114.983 29.246 114.983 30.5866C114.983 31.9273 116.047 33.0141 117.359 33.0141Z" fill="#7B7A89"/>
<path d="M43.292 29.2023C43.2917 29.2597 43.3028 29.3165 43.3245 29.3696C43.3462 29.4228 43.3782 29.4711 43.4186 29.5119C43.459 29.5526 43.507 29.585 43.56 29.6072C43.6129 29.6294 43.6697 29.641 43.7271 29.6412H49.5553C49.6705 29.6385 49.7801 29.5909 49.8606 29.5085C49.9411 29.4261 49.9862 29.3155 49.9862 29.2003C49.9862 29.0851 49.9411 28.9744 49.8606 28.892C49.7801 28.8096 49.6705 28.762 49.5553 28.7593H43.7271C43.6108 28.7607 43.4997 28.8081 43.4182 28.8911C43.3367 28.9741 43.2913 29.086 43.292 29.2023Z" fill="#7B7A89"/>
<path d="M43.292 30.858C43.2917 30.9154 43.3028 30.9722 43.3245 31.0254C43.3462 31.0785 43.3782 31.1268 43.4186 31.1676C43.459 31.2083 43.507 31.2407 43.56 31.2629C43.6129 31.2851 43.6697 31.2967 43.7271 31.2969H49.5553C49.6706 31.2944 49.7803 31.2468 49.8609 31.1644C49.9416 31.082 49.9867 30.9713 49.9867 30.856C49.9867 30.7407 49.9416 30.63 49.8609 30.5476C49.7803 30.4652 49.6706 30.4176 49.5553 30.415H43.7271C43.6108 30.4164 43.4997 30.4638 43.4182 30.5468C43.3367 30.6298 43.2913 30.7417 43.292 30.858Z" fill="#7B7A89"/>
<path d="M43.292 32.5107C43.2913 32.627 43.3367 32.7389 43.4182 32.8219C43.4997 32.9049 43.6108 32.9523 43.7271 32.9537H49.5553C49.6705 32.951 49.7801 32.9034 49.8606 32.821C49.9411 32.7386 49.9862 32.6279 49.9862 32.5127C49.9862 32.3975 49.9411 32.2869 49.8606 32.2045C49.7801 32.1221 49.6705 32.0745 49.5553 32.0718H43.7271C43.6697 32.072 43.6129 32.0836 43.56 32.1058C43.507 32.128 43.459 32.1604 43.4186 32.2011C43.3782 32.2419 43.3462 32.2902 43.3245 32.3433C43.3028 32.3965 43.2917 32.4533 43.292 32.5107Z" fill="#7B7A89"/>
<path d="M45.0925 45.3091H42.9983C42.3633 45.3091 41.8486 45.8237 41.8486 46.4584C41.8486 47.0931 42.3633 47.6076 42.9983 47.6076H45.0925C45.7274 47.6076 46.2421 47.0931 46.2421 46.4584C46.2421 45.8237 45.7274 45.3091 45.0925 45.3091Z" fill="#E6E6E6"/>
<path d="M69.0446 45.3091H66.9504C66.3155 45.3091 65.8008 45.8237 65.8008 46.4584C65.8008 47.0931 66.3155 47.6076 66.9504 47.6076H69.0446C69.6796 47.6076 70.1943 47.0931 70.1943 46.4584C70.1943 45.8237 69.6796 45.3091 69.0446 45.3091Z" fill="#E6E6E6"/>
<path d="M75.8308 45.3091H73.7366C73.1016 45.3091 72.5869 45.8237 72.5869 46.4584C72.5869 47.0931 73.1016 47.6076 73.7366 47.6076H75.8308C76.4657 47.6076 76.9804 47.0931 76.9804 46.4584C76.9804 45.8237 76.4657 45.3091 75.8308 45.3091Z" fill="#E6E6E6"/>
<path d="M62.5297 45.1177H49.5139C48.879 45.1177 48.3643 45.6323 48.3643 46.267C48.3643 46.9017 48.879 47.4162 49.5139 47.4162H62.5297C63.1647 47.4162 63.6794 46.9017 63.6794 46.267C63.6794 45.6323 63.1647 45.1177 62.5297 45.1177Z" fill="#E6E6E6"/>
<path d="M94.4653 45.1177H81.4495C80.8145 45.1177 80.2998 45.6323 80.2998 46.267C80.2998 46.9017 80.8145 47.4162 81.4495 47.4162H94.4653C95.1002 47.4162 95.6149 46.9017 95.6149 46.267C95.6149 45.6323 95.1002 45.1177 94.4653 45.1177Z" fill="#E6E6E6"/>
<path d="M51.4802 50.4971H49.386C48.751 50.4971 48.2363 51.0116 48.2363 51.6463C48.2363 52.281 48.751 52.7956 49.386 52.7956H51.4802C52.1151 52.7956 52.6298 52.281 52.6298 51.6463C52.6298 51.0116 52.1151 50.4971 51.4802 50.4971Z" fill="#E6E6E6"/>
<path d="M75.4314 50.4971H73.3372C72.7022 50.4971 72.1875 51.0116 72.1875 51.6463C72.1875 52.281 72.7022 52.7956 73.3372 52.7956H75.4314C76.0663 52.7956 76.581 52.281 76.581 51.6463C76.581 51.0116 76.0663 50.4971 75.4314 50.4971Z" fill="#E6E6E6"/>
<path d="M82.2185 50.4971H80.1243C79.4893 50.4971 78.9746 51.0116 78.9746 51.6463C78.9746 52.281 79.4893 52.7956 80.1243 52.7956H82.2185C82.8534 52.7956 83.3681 52.281 83.3681 51.6463C83.3681 51.0116 82.8534 50.4971 82.2185 50.4971Z" fill="#E6E6E6"/>
<path d="M68.9165 50.3052H55.9006C55.2657 50.3052 54.751 50.8198 54.751 51.4545C54.751 52.0892 55.2657 52.6037 55.9006 52.6037H68.9165C69.5514 52.6037 70.0661 52.0892 70.0661 51.4545C70.0661 50.8198 69.5514 50.3052 68.9165 50.3052Z" fill="#E6E6E6"/>
<path d="M100.851 50.3057H87.8352C87.2003 50.3057 86.6855 50.8202 86.6855 51.4549C86.6855 52.0896 87.2003 52.6042 87.8352 52.6042H100.851C101.486 52.6042 102.001 52.0896 102.001 51.4549C102.001 50.8202 101.486 50.3057 100.851 50.3057Z" fill="#E6E6E6"/>
<path d="M57.8669 55.6846H55.7727C55.1378 55.6846 54.623 56.1991 54.623 56.8339C54.623 57.4686 55.1378 57.9831 55.7727 57.9831H57.8669C58.5018 57.9831 59.0166 57.4686 59.0166 56.8339C59.0166 56.1991 58.5018 55.6846 57.8669 55.6846Z" fill="#E6E6E6"/>
<path d="M81.8181 55.6846H79.7239C79.0889 55.6846 78.5742 56.1991 78.5742 56.8339C78.5742 57.4686 79.0889 57.9831 79.7239 57.9831H81.8181C82.453 57.9831 82.9677 57.4686 82.9677 56.8339C82.9677 56.1991 82.453 55.6846 81.8181 55.6846Z" fill="#E6E6E6"/>
<path d="M88.6042 55.6846H86.51C85.8751 55.6846 85.3604 56.1991 85.3604 56.8339C85.3604 57.4686 85.8751 57.9831 86.51 57.9831H88.6042C89.2391 57.9831 89.7539 57.4686 89.7539 56.8339C89.7539 56.1991 89.2391 55.6846 88.6042 55.6846Z" fill="#E6E6E6"/>
<path d="M75.3032 55.4932H62.2873C61.6524 55.4932 61.1377 56.0077 61.1377 56.6424C61.1377 57.2771 61.6524 57.7917 62.2873 57.7917H75.3032C75.9381 57.7917 76.4528 57.2771 76.4528 56.6424C76.4528 56.0077 75.9381 55.4932 75.3032 55.4932Z" fill="#E6E6E6"/>
<path d="M107.239 55.4932H94.2229C93.588 55.4932 93.0732 56.0077 93.0732 56.6424C93.0732 57.2771 93.588 57.7917 94.2229 57.7917H107.239C107.874 57.7917 108.388 57.2771 108.388 56.6424C108.388 56.0077 107.874 55.4932 107.239 55.4932Z" fill="#E6E6E6"/>
<path d="M64.2546 60.8721H62.1604C61.5255 60.8721 61.0107 61.3866 61.0107 62.0214C61.0107 62.6561 61.5255 63.1706 62.1604 63.1706H64.2546C64.8895 63.1706 65.4042 62.6561 65.4042 62.0214C65.4042 61.3866 64.8895 60.8721 64.2546 60.8721Z" fill="#E6E6E6"/>
<path d="M88.2058 60.8721H86.1116C85.4766 60.8721 84.9619 61.3866 84.9619 62.0214C84.9619 62.6561 85.4766 63.1706 86.1116 63.1706H88.2058C88.8407 63.1706 89.3554 62.6561 89.3554 62.0214C89.3554 61.3866 88.8407 60.8721 88.2058 60.8721Z" fill="#E6E6E6"/>
<path d="M94.9909 60.8726H92.8967C92.2618 60.8726 91.7471 61.3871 91.7471 62.0218C91.7471 62.6565 92.2618 63.1711 92.8967 63.1711H94.9909C95.6259 63.1711 96.1406 62.6565 96.1406 62.0218C96.1406 61.3871 95.6259 60.8726 94.9909 60.8726Z" fill="#E6E6E6"/>
<path d="M81.6909 60.6807H68.675C68.0401 60.6807 67.5254 61.1952 67.5254 61.8299C67.5254 62.4646 68.0401 62.9792 68.675 62.9792H81.6909C82.3258 62.9792 82.8405 62.4646 82.8405 61.8299C82.8405 61.1952 82.3258 60.6807 81.6909 60.6807Z" fill="#E6E6E6"/>
<path d="M69.0446 81.5005H66.9504C66.3155 81.5005 65.8008 82.0151 65.8008 82.6498C65.8008 83.2845 66.3155 83.799 66.9504 83.799H69.0446C69.6796 83.799 70.1943 83.2845 70.1943 82.6498C70.1943 82.0151 69.6796 81.5005 69.0446 81.5005Z" fill="#E6E6E6"/>
<path d="M75.8308 81.5005H73.7366C73.1016 81.5005 72.5869 82.0151 72.5869 82.6498C72.5869 83.2845 73.1016 83.799 73.7366 83.799H75.8308C76.4657 83.799 76.9804 83.2845 76.9804 82.6498C76.9804 82.0151 76.4657 81.5005 75.8308 81.5005Z" fill="#E6E6E6"/>
<path d="M94.4653 81.6924H81.4495C80.8145 81.6924 80.2998 82.2069 80.2998 82.8416C80.2998 83.4763 80.8145 83.9909 81.4495 83.9909H94.4653C95.1002 83.9909 95.6149 83.4763 95.6149 82.8416C95.6149 82.2069 95.1002 81.6924 94.4653 81.6924Z" fill="#E6E6E6"/>
<path d="M45.0925 81.5005H42.9983C42.3633 81.5005 41.8486 82.0151 41.8486 82.6498C41.8486 83.2845 42.3633 83.799 42.9983 83.799H45.0925C45.7274 83.799 46.2421 83.2845 46.2421 82.6498C46.2421 82.0151 45.7274 81.5005 45.0925 81.5005Z" fill="#E6E6E6"/>
<path d="M62.5297 81.6924H49.5139C48.879 81.6924 48.3643 82.2069 48.3643 82.8416C48.3643 83.4763 48.879 83.9909 49.5139 83.9909H62.5297C63.1647 83.9909 63.6794 83.4763 63.6794 82.8416C63.6794 82.2069 63.1647 81.6924 62.5297 81.6924Z" fill="#E6E6E6"/>
<path d="M51.4802 76.313H49.386C48.751 76.313 48.2363 76.8275 48.2363 77.4622C48.2363 78.097 48.751 78.6115 49.386 78.6115H51.4802C52.1151 78.6115 52.6298 78.097 52.6298 77.4622C52.6298 76.8275 52.1151 76.313 51.4802 76.313Z" fill="#E6E6E6"/>
<path d="M75.4314 76.313H73.3372C72.7022 76.313 72.1875 76.8275 72.1875 77.4622C72.1875 78.097 72.7022 78.6115 73.3372 78.6115H75.4314C76.0663 78.6115 76.581 78.097 76.581 77.4622C76.581 76.8275 76.0663 76.313 75.4314 76.313Z" fill="#E6E6E6"/>
<path d="M82.2185 76.313H80.1243C79.4893 76.313 78.9746 76.8275 78.9746 77.4622C78.9746 78.097 79.4893 78.6115 80.1243 78.6115H82.2185C82.8534 78.6115 83.3681 78.097 83.3681 77.4622C83.3681 76.8275 82.8534 76.313 82.2185 76.313Z" fill="#E6E6E6"/>
<path d="M68.9165 76.5044H55.9006C55.2657 76.5044 54.751 77.019 54.751 77.6537C54.751 78.2884 55.2657 78.8029 55.9006 78.8029H68.9165C69.5514 78.8029 70.0661 78.2884 70.0661 77.6537C70.0661 77.019 69.5514 76.5044 68.9165 76.5044Z" fill="#E6E6E6"/>
<path d="M57.8669 71.1255H55.7727C55.1378 71.1255 54.623 71.64 54.623 72.2747C54.623 72.9095 55.1378 73.424 55.7727 73.424H57.8669C58.5018 73.424 59.0166 72.9095 59.0166 72.2747C59.0166 71.64 58.5018 71.1255 57.8669 71.1255Z" fill="#E6E6E6"/>
<path d="M81.8181 71.1255H79.7239C79.0889 71.1255 78.5742 71.64 78.5742 72.2747C78.5742 72.9095 79.0889 73.424 79.7239 73.424H81.8181C82.453 73.424 82.9677 72.9095 82.9677 72.2747C82.9677 71.64 82.453 71.1255 81.8181 71.1255Z" fill="#E6E6E6"/>
<path d="M88.6042 71.1255H86.51C85.8751 71.1255 85.3604 71.64 85.3604 72.2747C85.3604 72.9095 85.8751 73.424 86.51 73.424H88.6042C89.2391 73.424 89.7539 72.9095 89.7539 72.2747C89.7539 71.64 89.2391 71.1255 88.6042 71.1255Z" fill="#E6E6E6"/>
<path d="M75.3032 71.3169H62.2873C61.6524 71.3169 61.1377 71.8314 61.1377 72.4661C61.1377 73.1009 61.6524 73.6154 62.2873 73.6154H75.3032C75.9381 73.6154 76.4528 73.1009 76.4528 72.4661C76.4528 71.8314 75.9381 71.3169 75.3032 71.3169Z" fill="#E6E6E6"/>
<path d="M64.2546 65.9375H62.1604C61.5255 65.9375 61.0107 66.4521 61.0107 67.0868C61.0107 67.7215 61.5255 68.236 62.1604 68.236H64.2546C64.8895 68.236 65.4042 67.7215 65.4042 67.0868C65.4042 66.4521 64.8895 65.9375 64.2546 65.9375Z" fill="#E6E6E6"/>
<path d="M88.2058 65.9375H86.1116C85.4766 65.9375 84.9619 66.4521 84.9619 67.0868C84.9619 67.7215 85.4766 68.236 86.1116 68.236H88.2058C88.8407 68.236 89.3554 67.7215 89.3554 67.0868C89.3554 66.4521 88.8407 65.9375 88.2058 65.9375Z" fill="#E6E6E6"/>
<path d="M94.9909 65.9375H92.8967C92.2618 65.9375 91.7471 66.4521 91.7471 67.0868C91.7471 67.7215 92.2618 68.236 92.8967 68.236H94.9909C95.6259 68.236 96.1406 67.7215 96.1406 67.0868C96.1406 66.4521 95.6259 65.9375 94.9909 65.9375Z" fill="#E6E6E6"/>
<path d="M81.6909 66.1294H68.675C68.0401 66.1294 67.5254 66.6439 67.5254 67.2786C67.5254 67.9134 68.0401 68.4279 68.675 68.4279H81.6909C82.3258 68.4279 82.8405 67.9134 82.8405 67.2786C82.8405 66.6439 82.3258 66.1294 81.6909 66.1294Z" fill="#E6E6E6"/>
<path d="M37.5635 156.443C37.807 156.567 38.0545 156.691 38.298 156.811C44.6052 159.963 49.6509 161.755 56.5529 163.718C57.1357 157.214 57.6985 145.781 58.2454 138.694C58.3891 136.854 58.5328 135.31 58.6725 134.22C58.7078 133.641 58.8261 133.07 59.0238 132.524L58.9999 134.22L58.94 138.694L58.5927 164.277C67.1782 166.548 75.9977 167.818 84.8752 168.064C85.3383 168.076 85.7934 168.084 86.2325 168.092C86.3882 168.096 86.5399 168.1 86.6916 168.1C87.1905 168.104 87.6855 168.108 88.1845 168.108C97.5399 168.115 106.861 166.985 115.944 164.744C115.748 158.307 115.553 147.002 115.365 138.694C115.325 137.07 115.289 135.557 115.249 134.22C115.174 131.363 115.094 129.304 115.018 128.614C115.085 128.736 115.137 128.866 115.174 129.001C115.543 130.722 115.795 132.465 115.928 134.22C116.068 135.557 116.208 137.07 116.347 138.694C117.09 147.325 117.864 159.061 118.663 164.037C123.415 162.74 128.078 161.137 132.622 159.237C135.017 158.239 137.37 157.163 139.68 156.008C139.241 153.135 138.782 149.915 138.311 146.575C137.943 143.985 137.564 141.323 137.177 138.694C136.578 134.631 127.68 106.243 127.117 105.166C126.634 104.244 126.175 103.374 125.74 102.572C124.686 100.624 123.792 99.0718 123.129 98.0902C120.359 93.8893 116.235 90.762 111.441 89.2273L111.321 89.1954L111.238 89.2313L103.074 86.7252L101.881 86.3581L101.078 86.1107L98.2521 83.9598L96.7152 82.7906L95.2741 81.6932L92.4559 79.5503L75.0073 80.6238L71.6102 88.8003L64.0017 91.5817L63.87 91.5218L63.7543 91.4739L63.6345 91.5059C58.8417 93.0419 54.7178 96.169 51.9463 100.369C51.571 100.932 51.116 101.674 50.601 102.572C50.1619 103.334 49.6829 104.204 49.1639 105.166C48.4254 106.534 47.6191 108.079 46.7648 109.751C46.5772 110.118 46.3856 110.493 46.194 110.872C45.8387 111.574 45.4781 112.291 45.1122 113.023C44.2619 114.719 43.3837 116.491 42.5055 118.29C41.743 119.851 40.9726 123.059 40.2141 127.141C39.5874 130.533 38.9647 134.532 38.3619 138.694C37.5715 144.089 38.4138 150.549 37.6992 155.514C37.6553 155.829 37.6074 156.136 37.5635 156.443Z" fill="#7B7A89"/>
<path opacity="0.2" d="M121.19 127.124L117.798 114.038L114.803 125.33L121.19 127.124Z" fill="black"/>
<path d="M30.9297 118.598C32.1432 135.31 30.8858 142.668 37.5841 156.447C43.6787 159.429 50.027 161.863 56.5536 163.718C57.2322 163.91 57.9121 164.096 58.5934 164.277C67.179 166.548 75.9984 167.818 84.876 168.064C85.339 168.076 85.7941 168.084 86.2332 168.092C86.3889 168.096 86.5406 168.1 86.6923 168.1C87.1913 168.104 87.6862 168.108 88.1852 168.108C97.5406 168.115 106.862 166.985 115.945 164.744C116.855 164.52 117.761 164.285 118.663 164.037C123.415 162.74 128.078 161.137 132.623 159.237C135.018 158.239 137.371 157.163 139.68 156.008C140.203 155.745 140.726 155.482 141.241 155.21C143.888 150.557 145.393 144.899 145.425 138.099C143.593 126.383 34.9775 108.494 30.9297 118.598Z" fill="#2F2E41"/>
<path opacity="0.2" d="M30.9328 121.46C30.8708 120.425 30.8015 119.356 30.7207 118.243C34.7685 108.139 143.384 126.029 145.216 137.745C145.211 138.819 145.165 139.861 145.088 140.879C140.65 129.315 37.4646 112.313 30.9328 121.46Z" fill="black"/>
<path d="M6.31888 126.972C6.49475 127.484 6.82836 127.927 7.27182 128.237C7.71528 128.548 8.24577 128.71 8.78711 128.7L19.3623 128.428C19.9076 128.417 20.4349 128.231 20.8652 127.896C21.2955 127.561 21.6059 127.096 21.7498 126.57L23.2463 110.573C23.7773 110.813 24.3553 110.932 24.938 110.92C25.9601 110.894 26.9299 110.463 27.6342 109.722C28.3386 108.981 28.7198 107.991 28.6942 106.97C28.6685 105.948 28.2381 104.978 27.4974 104.273C26.7568 103.569 25.7666 103.187 24.7445 103.212C24.5115 103.211 24.2792 103.235 24.0514 103.284C23.8037 103.016 23.5026 102.803 23.1675 102.659C22.8324 102.514 22.4707 102.441 22.1057 102.445L5.83862 102.865C5.70368 102.87 5.56943 102.887 5.43736 102.915C5.08063 102.981 4.74227 103.123 4.44508 103.331C4.14788 103.54 3.89874 103.809 3.71443 104.121C3.53011 104.434 3.4149 104.782 3.37654 105.143C3.33818 105.504 3.37756 105.868 3.49205 106.213L6.31888 126.972ZM23.5532 109.487L24.6181 105.675C24.7392 105.234 24.742 104.77 24.6262 104.328C24.6779 104.328 24.7235 104.303 24.7751 104.303C25.5053 104.288 26.2117 104.563 26.7393 105.068C27.267 105.573 27.5729 106.266 27.59 106.996C27.6071 107.726 27.334 108.433 26.8305 108.961C26.3271 109.49 25.6344 109.798 24.9043 109.817C24.4323 109.832 23.9652 109.718 23.5532 109.487Z" fill="#2F2E41"/>
<path d="M5.4375 102.915C5.78407 104.896 9.6805 106.288 14.3657 106.046C18.674 105.848 22.1967 104.336 22.8421 102.543C22.6033 102.473 22.3549 102.44 22.1059 102.445L5.83876 102.865C5.70382 102.87 5.56956 102.887 5.4375 102.915Z" fill="#7B7A89"/>
<path d="M15.2244 118.182C15.2458 118.176 15.2662 118.167 15.2847 118.155L17.5813 116.652C17.609 116.634 17.6318 116.61 17.6476 116.58C17.6634 116.551 17.6717 116.519 17.6717 116.486C17.6717 116.452 17.6635 116.42 17.6477 116.391C17.6319 116.362 17.6091 116.337 17.5814 116.319L15.1943 114.756C15.1724 114.741 15.1479 114.731 15.1221 114.726C15.0963 114.721 15.0698 114.721 15.044 114.727C15.0183 114.732 14.9939 114.742 14.9721 114.757C14.9504 114.772 14.9318 114.791 14.9174 114.813C14.903 114.835 14.8931 114.859 14.8882 114.885C14.8834 114.911 14.8836 114.937 14.889 114.963C14.8944 114.989 14.9049 115.013 14.9197 115.035C14.9346 115.057 14.9536 115.075 14.9756 115.089L17.1076 116.485L15.0662 117.821C15.0267 117.847 14.9976 117.886 14.9841 117.931C14.9707 117.977 14.9737 118.025 14.9927 118.068C15.0117 118.112 15.0454 118.147 15.0878 118.167C15.1302 118.188 15.1786 118.193 15.2244 118.182Z" fill="#F8AC91"/>
<path d="M11.5967 118.349C11.6352 118.339 11.67 118.318 11.6965 118.288C11.723 118.259 11.74 118.222 11.7454 118.183C11.7508 118.143 11.7444 118.103 11.7268 118.067C11.7093 118.032 11.6815 118.002 11.647 117.982L9.5301 116.769L11.5762 115.25C11.5972 115.234 11.6149 115.215 11.6284 115.192C11.6418 115.17 11.6507 115.145 11.6545 115.119C11.6584 115.093 11.657 115.067 11.6506 115.041C11.6443 115.016 11.6329 114.992 11.6173 114.971C11.6017 114.95 11.5821 114.932 11.5596 114.919C11.5371 114.905 11.5122 114.896 11.4863 114.893C11.4604 114.889 11.434 114.89 11.4086 114.896C11.3832 114.903 11.3593 114.914 11.3383 114.93L9.04747 116.631C9.02085 116.65 8.99956 116.676 8.98554 116.707C8.97151 116.737 8.96519 116.77 8.96714 116.803C8.96909 116.836 8.97925 116.868 8.9967 116.896C9.01415 116.924 9.03835 116.947 9.0671 116.964L11.4484 118.328C11.4933 118.354 11.5465 118.362 11.5967 118.349Z" fill="#F8AC91"/>
<path d="M14.996 119.498C15.0153 119.494 15.0337 119.486 15.0507 119.475C15.0731 119.462 15.0926 119.444 15.1081 119.423C15.1236 119.402 15.1348 119.378 15.141 119.352C15.1472 119.327 15.1483 119.3 15.1443 119.274C15.1403 119.248 15.1312 119.224 15.1175 119.201L11.862 113.851C11.8343 113.806 11.7899 113.773 11.7386 113.761C11.6872 113.749 11.6331 113.757 11.588 113.785C11.5429 113.812 11.5105 113.856 11.4979 113.908C11.4854 113.959 11.4936 114.013 11.5209 114.058L14.7765 119.409C14.7987 119.445 14.832 119.474 14.8715 119.49C14.911 119.506 14.9546 119.509 14.996 119.498Z" fill="#F8AC91"/>
<path d="M267.859 97.043H232.331V128.169H267.859V97.043Z" fill="#7B7A89"/>
<path d="M273.125 53.5664C272.466 57.4685 273.045 61.4789 274.779 65.0361C275.421 66.3445 276.216 67.9206 275.435 69.1506C275.215 69.458 274.93 69.7126 274.599 69.8956C274.269 70.0787 273.902 70.1856 273.525 70.2086C272.77 70.2485 272.015 70.1507 271.296 69.9201" fill="#CCCCCC"/>
<path d="M241.911 41.5753C242.573 41.5753 243.109 41.1287 243.109 40.5777C243.109 40.0267 242.573 39.5801 241.911 39.5801C241.25 39.5801 240.714 40.0267 240.714 40.5777C240.714 41.1287 241.25 41.5753 241.911 41.5753Z" fill="#7B7A89"/>
<path d="M246.303 41.9743C246.964 41.9743 247.501 41.5276 247.501 40.9766C247.501 40.4257 246.964 39.979 246.303 39.979C245.642 39.979 245.105 40.4257 245.105 40.9766C245.105 41.5276 245.642 41.9743 246.303 41.9743Z" fill="#7B7A89"/>
<path d="M250.694 43.9693C251.355 43.9693 251.891 43.5227 251.891 42.9717C251.891 42.4207 251.355 41.9741 250.694 41.9741C250.032 41.9741 249.496 42.4207 249.496 42.9717C249.496 43.5227 250.032 43.9693 250.694 43.9693Z" fill="#7B7A89"/>
<path d="M255.883 42.7721C256.545 42.7721 257.081 42.3255 257.081 41.7745C257.081 41.2236 256.545 40.7769 255.883 40.7769C255.222 40.7769 254.686 41.2236 254.686 41.7745C254.686 42.3255 255.222 42.7721 255.883 42.7721Z" fill="#7B7A89"/>
<path d="M146.874 61.6807C152.691 60.0667 159.169 61.7965 163.663 65.759C166.088 67.9117 167.868 70.695 168.804 73.7991C169.952 77.4938 170.142 81.3912 170.262 85.2318C170.395 89.4783 170.51 93.7255 170.634 97.9723C170.752 102.021 170.766 106.09 171.036 110.132C171.263 113.524 171.806 117.046 173.622 119.988C175.306 122.716 177.966 124.557 180.972 125.572C184.019 126.601 187.303 126.841 190.499 126.82C194.219 126.808 197.933 126.514 201.608 125.941C208.588 124.823 215.483 121.971 219.747 116.089C221.71 113.417 222.813 110.212 222.91 106.899C223 103.039 221.766 99.2991 220.414 95.7331C219.099 92.263 217.676 88.844 216.844 85.2159C216.07 81.8205 215.702 78.3455 215.746 74.8635C215.817 67.8973 217.488 61.0405 220.628 54.8213C222.217 51.6271 224.233 48.6637 226.621 46.0123C229.084 43.3339 232.133 41.1228 235.758 40.3979C237.528 40.0315 239.36 40.1051 241.095 40.6124C241.835 40.8339 242.151 39.6788 241.413 39.458C237.821 38.3829 233.919 39.2004 230.734 41.0664C227.603 42.9013 225.128 45.6538 223.028 48.5723C218.993 54.2943 216.307 60.8556 215.171 67.7637C214.035 74.6719 214.479 81.7475 216.47 88.4595C218.601 95.4385 223.236 102.703 221.245 110.256C219.502 116.867 213.464 121.36 207.227 123.389C203.443 124.62 199.476 125.141 195.518 125.411C192.174 125.638 188.784 125.783 185.45 125.354C182.387 124.959 179.237 124.023 176.862 121.968C174.259 119.715 173.069 116.478 172.551 113.156C171.965 109.397 172.052 105.521 171.941 101.728L171.564 88.7813C171.351 81.4693 171.534 73.3655 166.775 67.3068C164.873 64.9459 162.456 63.05 159.711 61.7632C156.965 60.4763 153.961 59.8325 150.929 59.8806C149.45 59.9146 147.981 60.1315 146.556 60.5264C146.408 60.5728 146.283 60.675 146.209 60.8113C146.134 60.9477 146.116 61.1075 146.157 61.2572C146.199 61.4069 146.296 61.5348 146.43 61.6138C146.564 61.6928 146.723 61.7168 146.874 61.6807Z" fill="#7B7A89"/>
<path d="M61.8608 54.107C62.7085 60.1367 65.9161 65.5834 70.7788 69.2503C75.6415 72.9171 81.7616 74.5043 87.7942 73.6629C93.8268 72.8216 99.2786 69.6206 102.952 64.7633C106.625 59.906 108.219 53.7897 107.383 47.7583L107.338 47.4324C106.365 41.4823 103.093 36.1527 98.2249 32.5932C93.3573 29.0337 87.285 27.5296 81.318 28.4054C75.351 29.2812 69.9675 32.4667 66.3289 37.2747C62.6902 42.0826 61.088 48.1278 61.8678 54.1061L61.8608 54.107Z" fill="#FFB6B6"/>
<path d="M82.1201 73.1032C80.9319 70.7106 79.7109 68.1417 80.0337 65.4901C80.3565 62.8385 82.9482 60.2964 85.5041 61.0755C87.0325 61.5414 88.1915 63.0447 89.7878 63.1165C91.9841 63.2153 93.2347 60.6987 93.9113 58.6075L96.6666 50.0909C101.981 54.2645 95.2504 49.889 101.834 48.3611C104.416 47.7618 107.024 46.6012 108.533 44.4218C110.042 42.2424 110.021 38.8696 107.936 37.2324C106.914 36.4296 105.555 36.1279 104.578 35.2709C103.972 34.7392 103.553 34.0266 103.383 33.2385C103.214 32.4503 103.302 31.6285 103.636 30.8946C103.97 30.1607 104.531 29.5538 105.237 29.1637C105.943 28.7735 106.756 28.6209 107.555 28.7283L100.543 27.876L102.618 24.0932C101.118 25.2841 99.0238 25.4506 97.1368 25.1174C95.2499 24.7843 93.4712 24.0141 91.6246 23.5026C82.7598 21.0472 72.4811 25.4024 68.0815 33.4781C66.3547 32.9081 64.4954 32.8761 62.75 33.3862C61.0046 33.8964 59.4554 34.9246 58.3078 36.3348C56.4394 38.7217 55.9397 41.9005 55.8772 44.9307C55.7607 50.9055 57.0837 56.8207 59.7343 62.1771C60.5605 63.8417 61.537 65.4746 62.9412 66.6923C64.3454 67.9099 80.2146 74.6552 82.0461 74.3372" fill="#2F2E41"/>
<path d="M247.899 57.3372C247.902 58.373 247.769 59.4047 247.504 60.4059V60.4099C247.5 60.4299 247.492 60.4498 247.488 60.4698C246.682 63.4347 244.758 65.5178 242.51 65.5178C240.275 65.5178 238.359 63.4507 237.54 60.5097C237.484 60.3062 237.436 60.1027 237.393 59.8912C237.337 59.6557 237.293 59.4123 237.257 59.1609C237.225 58.9614 237.201 58.7579 237.181 58.5504C237.153 58.263 237.133 57.9757 237.129 57.6764V57.6725C237.121 57.5607 237.121 57.449 237.121 57.3372V57.2375L237.125 57.2335C237.126 56.7277 237.159 56.2225 237.225 55.7211C237.253 55.5096 237.285 55.3061 237.325 55.1026C237.373 54.8552 237.424 54.6117 237.488 54.3723C237.54 54.1608 237.6 53.9573 237.664 53.7538C237.752 53.4824 237.848 53.219 237.955 52.9676C238.023 52.804 238.095 52.6444 238.167 52.4888C239.149 50.4696 240.73 49.1567 242.51 49.1567C244.973 49.1567 247.049 51.6667 247.692 55.0906C247.7 55.1425 247.712 55.1943 247.716 55.2462V55.2502C247.839 55.9391 247.9 56.6375 247.899 57.3372Z" fill="#E6E6E6"/>
<path d="M238.219 52.6648C238.216 52.738 238.189 52.8081 238.141 52.8634C238.093 52.9187 238.027 52.9557 237.955 52.9681C238.023 52.8045 238.095 52.6449 238.167 52.4893C238.2 52.5418 238.218 52.6026 238.219 52.6648Z" fill="#F8AC91"/>
<path d="M242.938 52.3013H239.426C239.254 52.3013 239.115 52.4401 239.115 52.6114C239.115 52.7827 239.254 52.9216 239.426 52.9216H242.938C243.11 52.9216 243.249 52.7827 243.249 52.6114C243.249 52.4401 243.11 52.3013 242.938 52.3013Z" fill="#F8AC91"/>
<path d="M238.111 54.0611C238.111 54.1436 238.078 54.2227 238.02 54.2811C237.961 54.3394 237.882 54.3723 237.8 54.3724H237.488C237.54 54.1609 237.6 53.9574 237.664 53.7539H237.8C237.882 53.7537 237.96 53.786 238.019 53.8435C238.077 53.901 238.11 53.9792 238.111 54.0611Z" fill="#F8AC91"/>
<path d="M239.633 53.7529H239.068C238.897 53.7529 238.758 53.8917 238.758 54.063C238.758 54.2343 238.897 54.3732 239.068 54.3732H239.633C239.805 54.3732 239.944 54.2343 239.944 54.063C239.944 53.8917 239.805 53.7529 239.633 53.7529Z" fill="#F8AC91"/>
<path d="M244.662 53.7012H241.149C240.978 53.7012 240.839 53.8401 240.839 54.0114C240.839 54.1827 240.978 54.3216 241.149 54.3216H244.662C244.833 54.3216 244.972 54.1827 244.972 54.0114C244.972 53.8401 244.833 53.7012 244.662 53.7012Z" fill="#F8AC91"/>
<path d="M239.525 55.1533H238.96C238.788 55.1533 238.649 55.2922 238.649 55.4635C238.649 55.6348 238.788 55.7737 238.96 55.7737H239.525C239.696 55.7737 239.835 55.6348 239.835 55.4635C239.835 55.2922 239.696 55.1533 239.525 55.1533Z" fill="#F8AC91"/>
<path d="M241.357 55.1533H240.792C240.62 55.1533 240.481 55.2922 240.481 55.4635C240.481 55.6348 240.62 55.7737 240.792 55.7737H241.357C241.528 55.7737 241.667 55.6348 241.667 55.4635C241.667 55.2922 241.528 55.1533 241.357 55.1533Z" fill="#F8AC91"/>
<path d="M238.079 55.4099C238.079 55.4924 238.046 55.5715 237.988 55.6299C237.929 55.6882 237.85 55.7211 237.767 55.7212H237.225C237.253 55.5097 237.284 55.3062 237.324 55.1026H237.767C237.808 55.1022 237.848 55.1099 237.886 55.1251C237.924 55.1404 237.958 55.163 237.987 55.1915C238.016 55.2201 238.039 55.2541 238.055 55.2915C238.071 55.329 238.079 55.3693 238.079 55.4099Z" fill="#F8AC91"/>
<path d="M246.386 55.1016H242.873C242.701 55.1016 242.562 55.2404 242.562 55.4117C242.562 55.583 242.701 55.7219 242.873 55.7219H246.386C246.557 55.7219 246.696 55.583 246.696 55.4117C246.696 55.2404 246.557 55.1016 246.386 55.1016Z" fill="#F8AC91"/>
<path d="M238.219 57.4533C238.219 57.494 238.211 57.5342 238.195 57.5717C238.179 57.6092 238.156 57.6432 238.127 57.6717C238.098 57.7003 238.064 57.7229 238.026 57.7381C237.988 57.7534 237.948 57.761 237.908 57.7606H237.345C237.265 57.761 237.188 57.731 237.129 57.6768V57.6728C237.121 57.5611 237.121 57.4494 237.121 57.3376V57.2379L237.125 57.2339C237.154 57.2047 237.188 57.1816 237.226 57.1659C237.263 57.1501 237.304 57.142 237.345 57.1421H237.908C237.99 57.1422 238.069 57.175 238.128 57.2334C238.186 57.2917 238.219 57.3708 238.219 57.4533Z" fill="#CCCCCC"/>
<path d="M242.938 57.0898H239.426C239.254 57.0898 239.115 57.2286 239.115 57.4C239.115 57.5713 239.254 57.7101 239.426 57.7101H242.938C243.11 57.7101 243.249 57.5713 243.249 57.4C243.249 57.2286 243.11 57.0898 242.938 57.0898Z" fill="#CCCCCC"/>
<path d="M238.111 58.8501C238.111 58.9326 238.078 59.0117 238.019 59.07C237.961 59.1284 237.882 59.1612 237.799 59.1613H237.257C237.225 58.9618 237.201 58.7583 237.181 58.5508C237.199 58.5442 237.218 58.5415 237.237 58.5428H237.799C237.881 58.5427 237.96 58.5749 238.018 58.6324C238.077 58.69 238.11 58.7682 238.111 58.8501Z" fill="#CCCCCC"/>
<path d="M239.633 58.5415H239.068C238.897 58.5415 238.758 58.6804 238.758 58.8517C238.758 59.023 238.897 59.1619 239.068 59.1619H239.633C239.805 59.1619 239.944 59.023 239.944 58.8517C239.944 58.6804 239.805 58.5415 239.633 58.5415Z" fill="#CCCCCC"/>
<path d="M244.662 58.4897H241.149C240.978 58.4897 240.839 58.6286 240.839 58.7999C240.839 58.9712 240.978 59.11 241.149 59.11H244.662C244.833 59.11 244.972 58.9712 244.972 58.7999C244.972 58.6286 244.833 58.4897 244.662 58.4897Z" fill="#CCCCCC"/>
<path d="M239.525 59.9419H238.96C238.788 59.9419 238.649 60.0808 238.649 60.2521C238.649 60.4234 238.788 60.5622 238.96 60.5622H239.525C239.696 60.5622 239.835 60.4234 239.835 60.2521C239.835 60.0808 239.696 59.9419 239.525 59.9419Z" fill="#CCCCCC"/>
<path d="M241.357 59.9419H240.792C240.62 59.9419 240.481 60.0808 240.481 60.2521C240.481 60.4234 240.62 60.5622 240.792 60.5622H241.357C241.528 60.5622 241.667 60.4234 241.667 60.2521C241.667 60.0808 241.528 59.9419 241.357 59.9419Z" fill="#CCCCCC"/>
<path d="M238.079 60.1989C238.079 60.2814 238.046 60.3605 237.988 60.4189C237.929 60.4772 237.85 60.51 237.768 60.5101H237.54C237.484 60.3066 237.436 60.1031 237.393 59.8916H237.768C237.808 59.8912 237.849 59.8989 237.886 59.9141C237.924 59.9294 237.958 59.9519 237.987 59.9805C238.016 60.009 238.039 60.043 238.055 60.0805C238.071 60.118 238.079 60.1582 238.079 60.1989Z" fill="#CCCCCC"/>
<path d="M246.386 59.8896H242.873C242.701 59.8896 242.562 60.0285 242.562 60.1998C242.562 60.3711 242.701 60.5101 242.873 60.5101H246.386C246.557 60.5101 246.696 60.3711 246.696 60.1998C246.696 60.0285 246.557 59.8896 246.386 59.8896Z" fill="#CCCCCC"/>
</g>
</svg>
