<svg width="183" height="143" viewBox="0 0 183 143" fill="none" xmlns="http://www.w3.org/2000/svg">
<g clip-path="url(#clip0_62_1323)">
<path d="M136.806 28.5449H45.7852V113.641H136.806V28.5449Z" fill="#E2001A"/>
<path d="M90.7854 83.5967V57.2926H107.984V61.4474H95.4159V68.6524H106.237V72.7353H95.4159V83.5967H90.7854ZM127.507 83.5967L121.213 73.0054H116.512V83.5967H111.882V57.2926H122.273C126.454 57.2926 132.035 58.3913 132.035 64.9358C132.035 69.385 129.569 71.4443 125.677 72.4049L132.992 83.5967H127.494H127.507ZM121.708 69.0726C125.902 69.0726 127.218 67.3976 127.218 64.8878C127.218 63.2306 126.422 61.1772 121.869 61.1772H116.519V69.0726H121.708ZM75.4943 67.6256C72.1549 66.7491 71.7631 65.1041 71.7631 64.0353C71.7631 61.9938 73.4521 60.6249 76.4961 60.6249C78.5962 60.6249 80.4522 61.4654 81.8072 63.1407L85.4743 61.1413C83.6955 58.6977 80.9402 56.6621 76.4833 56.6621C71.2236 56.6621 66.9079 59.7182 66.9079 64.2274C66.9079 68.7365 70.9861 70.6877 75.3338 71.8286C75.3338 71.8286 77.3311 72.369 77.3503 72.375C81.0815 73.2936 81.3705 74.8727 81.3705 76.2356C81.3705 78.7272 78.577 80.2703 76.1623 80.2703C73.7475 80.2703 71.6346 79.4958 70.0099 76.8L66.3428 78.8413C68.719 82.66 71.5705 84.2151 76.1879 84.2151C81.2807 84.2151 86.2064 80.5825 86.2064 76.0434C86.2064 70.6697 81.5441 69.1508 77.5108 68.172C77.4916 68.172 75.5007 67.6316 75.5007 67.6316L75.4943 67.6256Z" fill="white"/>
</g>
<defs>
<clipPath id="clip0_62_1323">
<rect width="91.0208" height="85.0964" fill="white" transform="translate(45.7852 28.5449)"/>
</clipPath>
</defs>
</svg>
