<svg width="217" height="35" viewBox="0 0 217 35" fill="none" xmlns="http://www.w3.org/2000/svg">
<g clip-path="url(#clip0_52_41)">
<path d="M14.2065 30.4619C40.2895 30.5126 32.7699 30.579 51.7302 30.3865C54.8775 30.3546 57.6192 26.8864 57.6946 23.3547C57.7626 20.178 57.2229 18.431 55.2967 16.6498C53.3705 14.8685 50.3739 14.4879 50.3739 14.4879C50.3399 12.935 49.2322 10.8442 47.2142 9.06359C44.9913 7.22044 40.2772 7.2544 40.2772 7.2544C40.2772 7.2544 37.5013 3.87547 34.2418 2.4336C30.9823 0.991731 27.2925 1.0074 24.7188 1.72276C22.1451 2.43809 18.7096 5.01114 17.0897 7.99143C15.4699 10.9717 15.6656 14.3592 15.6656 14.3592C15.6656 14.3592 12.3972 14.6251 10.3552 16.4027C8.31305 18.1803 7.49722 21.4696 7.5005 23.6804C7.50659 28.102 11.0275 30.4558 14.2065 30.4619Z" fill="white" stroke="#F69A00" stroke-width="0.092652"/>
<path d="M14.2065 30.4621C40.2895 30.5127 32.7699 30.5791 51.7302 30.3866C54.8775 30.3548 57.6192 26.8865 57.6946 23.3548C57.7626 20.1781 57.2229 18.4312 55.2967 16.6499C53.3705 14.8687 50.3739 14.488 50.3739 14.488C50.3399 12.9352 49.2322 10.8443 47.2142 9.06371C44.9913 7.22057 40.2772 7.25452 40.2772 7.25452C40.2772 7.25452 37.5013 3.87559 34.2418 2.43372C30.9823 0.991849 27.2925 1.00752 24.7188 1.72288C22.1451 2.43821 18.7096 5.01126 17.0897 7.99156C15.4699 10.9719 15.6656 14.3594 15.6656 14.3594C15.6656 14.3594 12.3972 14.6253 10.3551 16.4028C8.31305 18.1804 7.49722 21.4697 7.5005 23.6805C7.50659 28.1021 11.0275 30.4559 14.2065 30.4621Z" fill="white" stroke="#2D5E76" stroke-opacity="0.4" stroke-width="2"/>
<path d="M28 33.5935L49.0121 12.5814V18.8072L33.6421 33.5935H28Z" stroke="black" stroke-width="0.136189"/>
<path d="M28 33.5935L49.0121 12.5815C49.0121 12.5815 50.1427 11.0622 53.4664 11.3632C54.6628 11.4714 55.8628 12.018 56.7681 12.8077C57.4971 13.4436 57.6433 14.557 58.2814 15.284C58.8837 15.9703 59.5984 16.5926 60.4138 17.0036C60.9004 17.2489 61.9958 17.4164 61.9958 17.4164L57.7311 21.6123C57.2357 19.2733 56.8052 18.0223 55.0141 17.21C54.0606 16.8761 53.2551 16.6565 51.6263 17.1239C50.1422 17.5499 49.0121 18.8071 49.0121 18.8071L33.6421 33.5934L28 33.5935Z" fill="#00546E" fill-opacity="0.89"/>
<path d="M145.042 8.17472V4.45597H162.562V8.17472H156.031V25.7893H151.573V8.17472H145.042ZM170.336 26.1018C168.69 26.1018 167.273 25.7685 166.086 25.1018C164.905 24.4282 163.996 23.4768 163.357 22.2476C162.718 21.0115 162.398 19.5497 162.398 17.8622C162.398 16.2164 162.718 14.7719 163.357 13.5289C163.996 12.2858 164.895 11.3171 166.055 10.6226C167.221 9.9282 168.589 9.58098 170.159 9.58098C171.214 9.58098 172.197 9.75111 173.107 10.0914C174.023 10.4247 174.822 10.9282 175.503 11.6018C176.19 12.2754 176.725 13.1226 177.107 14.1435C177.489 15.1574 177.68 16.3449 177.68 17.706V18.9247H164.169V16.1747H173.503C173.503 15.5358 173.364 14.9699 173.086 14.4768C172.808 13.9838 172.423 13.5983 171.93 13.3206C171.444 13.0358 170.878 12.8935 170.232 12.8935C169.558 12.8935 168.961 13.0497 168.44 13.3622C167.926 13.6678 167.523 14.081 167.232 14.6018C166.94 15.1157 166.791 15.6886 166.784 16.3206V18.9351C166.784 19.7268 166.93 20.4108 167.221 20.9872C167.52 21.5636 167.94 22.0081 168.482 22.3206C169.023 22.6331 169.666 22.7893 170.409 22.7893C170.902 22.7893 171.353 22.7199 171.763 22.581C172.173 22.4421 172.523 22.2338 172.815 21.956C173.107 21.6782 173.329 21.3379 173.482 20.9351L177.586 21.206C177.378 22.1921 176.951 23.0532 176.305 23.7893C175.666 24.5185 174.839 25.0879 173.826 25.4976C172.819 25.9004 171.655 26.1018 170.336 26.1018ZM184.596 21.1851L184.607 15.8622H185.253L190.378 9.78931H195.471L188.586 17.831H187.534L184.596 21.1851ZM180.576 25.7893V4.45597H185.013V25.7893H180.576ZM190.576 25.7893L185.867 18.8206L188.826 15.6851L195.773 25.7893H190.576Z" fill="white"/>
<path d="M84.8556 5.34233V26.6757H80.9598L71.6785 13.2486H71.5223V26.6757H67.0119V5.34233H70.9702L80.1785 18.759H80.366V5.34233H84.8556ZM98.7593 19.8632V10.6757H103.197V26.6757H98.9364V23.7694H98.7697C98.4086 24.7069 97.8079 25.4604 96.9676 26.0298C96.1343 26.5993 95.1169 26.884 93.9155 26.884C92.8461 26.884 91.9051 26.6409 91.0926 26.1548C90.2801 25.6687 89.6447 24.9777 89.1864 24.0819C88.735 23.1861 88.5058 22.1132 88.4989 20.8632V10.6757H92.9364V20.0715C92.9433 21.0159 93.1968 21.7625 93.6968 22.3111C94.1968 22.8597 94.8669 23.134 95.7072 23.134C96.2419 23.134 96.7419 23.0125 97.2072 22.7694C97.6725 22.5194 98.0475 22.1514 98.3322 21.6652C98.6239 21.1791 98.7662 20.5784 98.7593 19.8632ZM106.83 26.6757V5.34233H111.267V13.3632H111.403C111.597 12.9326 111.878 12.4951 112.246 12.0507C112.621 11.5993 113.107 11.2243 113.705 10.9257C114.309 10.6201 115.059 10.4673 115.955 10.4673C117.121 10.4673 118.198 10.7729 119.184 11.384C120.17 11.9882 120.958 12.9014 121.548 14.1236C122.139 15.3389 122.434 16.8632 122.434 18.6965C122.434 20.4812 122.146 21.9882 121.569 23.2173C121 24.4395 120.222 25.3666 119.236 25.9986C118.257 26.6236 117.159 26.9361 115.944 26.9361C115.083 26.9361 114.35 26.7937 113.746 26.509C113.149 26.2243 112.659 25.8666 112.278 25.4361C111.896 24.9986 111.604 24.5576 111.403 24.1132H111.205V26.6757H106.83ZM111.173 18.6757C111.173 19.627 111.305 20.4569 111.569 21.1652C111.833 21.8736 112.215 22.4257 112.715 22.8215C113.215 23.2104 113.823 23.4048 114.538 23.4048C115.26 23.4048 115.871 23.2069 116.371 22.8111C116.871 22.4083 117.25 21.8527 117.507 21.1444C117.771 20.4291 117.903 19.6062 117.903 18.6757C117.903 17.752 117.774 16.9395 117.517 16.2382C117.26 15.5368 116.882 14.9882 116.382 14.5923C115.882 14.1965 115.267 13.9986 114.538 13.9986C113.816 13.9986 113.205 14.1895 112.705 14.5715C112.212 14.9534 111.833 15.4951 111.569 16.1965C111.305 16.8979 111.173 17.7243 111.173 18.6757ZM129.957 26.9777C128.936 26.9777 128.027 26.8007 127.228 26.4465C126.429 26.0854 125.797 25.5541 125.332 24.8527C124.874 24.1444 124.645 23.2625 124.645 22.2069C124.645 21.318 124.808 20.5715 125.134 19.9673C125.461 19.3632 125.905 18.877 126.468 18.509C127.03 18.1409 127.669 17.8632 128.384 17.6757C129.106 17.4882 129.863 17.3562 130.655 17.2798C131.586 17.1826 132.336 17.0923 132.905 17.009C133.475 16.9187 133.888 16.7868 134.145 16.6132C134.402 16.4395 134.53 16.1826 134.53 15.8423V15.7798C134.53 15.1201 134.322 14.6097 133.905 14.2486C133.495 13.8875 132.912 13.7069 132.155 13.7069C131.356 13.7069 130.721 13.884 130.249 14.2382C129.777 14.5854 129.464 15.0229 129.311 15.5507L125.207 15.2173C125.416 14.2451 125.825 13.4048 126.436 12.6965C127.047 11.9812 127.836 11.4326 128.801 11.0507C129.773 10.6618 130.898 10.4673 132.176 10.4673C133.065 10.4673 133.916 10.5715 134.728 10.7798C135.547 10.9882 136.273 11.3111 136.905 11.7486C137.544 12.1861 138.047 12.7486 138.416 13.4361C138.784 14.1166 138.968 14.9326 138.968 15.884V26.6757H134.759V24.4569H134.634C134.377 24.9569 134.034 25.3979 133.603 25.7798C133.172 26.1548 132.655 26.45 132.051 26.6652C131.447 26.8736 130.749 26.9777 129.957 26.9777ZM131.228 23.9152C131.881 23.9152 132.457 23.7868 132.957 23.5298C133.457 23.2659 133.85 22.9118 134.134 22.4673C134.419 22.0229 134.561 21.5194 134.561 20.9569V19.259C134.422 19.3493 134.231 19.4326 133.988 19.509C133.752 19.5784 133.485 19.6444 133.186 19.7069C132.888 19.7625 132.589 19.8145 132.291 19.8632C131.992 19.9048 131.721 19.943 131.478 19.9777C130.957 20.0541 130.502 20.1757 130.113 20.3423C129.725 20.509 129.422 20.7347 129.207 21.0194C128.992 21.2972 128.884 21.6444 128.884 22.0611C128.884 22.6652 129.103 23.127 129.541 23.4465C129.985 23.759 130.547 23.9152 131.228 23.9152Z" fill="#059BCA" fill-opacity="0.89"/>
</g>
<defs>
<clipPath id="clip0_52_41">
<rect width="217" height="35" fill="white"/>
</clipPath>
</defs>
</svg>
