<svg width="289" height="142" viewBox="0 0 289 142" fill="none" xmlns="http://www.w3.org/2000/svg">
<path d="M152.072 31.9111C147.777 34.9677 143.659 39.0141 141.268 43.4416C136.355 52.5418 139.078 60.9057 141.184 66.3342C144.052 73.7259 149.859 77.4578 156.78 80.1835C166.649 84.0698 179.053 84.3315 190.317 81.734C194.287 80.8183 200.452 78.9144 201.797 77.138C203.254 75.2149 203.483 71.4956 200.353 69.862C197.301 68.2687 197.005 69.4853 187.914 71.2881C181.588 72.5427 174.679 72.7606 166.381 69.5617C161.148 67.5443 157.606 64.4485 156.397 60.217C152.927 48.0793 160.424 43.5775 161.886 42.7545L152.072 31.9111Z" fill="url(#paint0_linear_72_569)"/>
<path d="M162.413 46.2014C158.506 45.7391 147.046 44.6545 135.055 42.7547C116.5 39.8149 94.6865 35.7373 87.7219 35.3021C74.3187 34.4647 72.0837 50.0145 82.7834 52.6742C88.8434 54.1806 105.518 52.5986 109.572 59.7451C110.807 61.9219 114.072 70.1299 117.772 80.2937C119.223 84.2783 131.018 83.6518 128.825 75.1621C127.573 70.3139 124.721 57.219 124.721 57.219C124.721 57.219 158.555 60.4233 161.309 60.636L162.413 46.2014Z" fill="url(#paint1_linear_72_569)"/>
<path d="M180.23 38.2044C184.526 38.3063 192.002 39.2918 195.369 41.3033L214.145 44.6078C214.323 35.3015 208.608 30.2937 202.204 27.4069C197.343 25.2157 190.523 23.4313 180.289 23.8214C170.503 24.1944 160.214 26.1087 152.008 31.9486L161.816 42.8108C166.444 40.2068 172.26 38.0155 180.23 38.2044Z" fill="url(#paint2_linear_72_569)"/>
<path d="M195.069 41.1318C195.069 41.1318 196.058 41.6976 196.488 42.0478C198.533 43.7162 199.21 45.7095 193.006 46.6261L197.913 60.1763C209.078 57.5047 214.004 51.6216 214.141 44.4386L195.069 41.1318Z" fill="url(#paint3_linear_72_569)"/>
<path d="M193.192 46.6025C187.692 47.4151 177.03 47.9405 162.329 46.2012L161.225 60.6358C185.097 62.4799 193.493 61.2221 198.099 60.1198L193.192 46.6025Z" fill="url(#paint4_linear_72_569)"/>
<path d="M75.8984 98.7425C75.8984 98.9979 76.1236 99.1943 76.3938 99.1943H80.8966V109.934L83.8646 109.943V99.1943H88.3675C88.6377 99.1943 88.8628 98.9979 88.8628 98.7425V97.0837C88.8628 96.8283 88.6377 96.6318 88.3675 96.6318H76.3938C76.1236 96.6318 75.8984 96.8283 75.8984 97.0837V98.7425Z" fill="#FC0103"/>
<path d="M86.459 105.035C86.459 107.864 89.1157 110.065 92.4028 110.065C95.7124 110.065 98.3691 107.864 98.3691 105.035C98.3691 102.187 95.7124 99.9473 92.4028 99.9473C89.1157 99.9473 86.459 102.187 86.459 105.035ZM89.7461 105.016C89.7461 103.68 90.8943 102.58 92.4028 102.58C93.9337 102.58 95.082 103.68 95.082 105.016C95.082 106.352 93.9337 107.432 92.4028 107.432C90.8943 107.432 89.7461 106.352 89.7461 105.016Z" fill="#FC0103"/>
<path d="M100.31 107.09C100.31 109.27 102.179 110.154 104.07 110.154C105.353 110.154 106.667 109.996 107.505 109.425C108.872 108.494 107.726 106.602 105.862 107.539C105.309 107.817 104.399 107.675 104.232 107.615C103.857 107.479 103.204 107.364 103.242 106.422V102.302H105.993C108.104 102.302 108.077 99.9252 105.993 99.9252H103.242V96.6715L100.31 96.6621V99.9252H98.8691V102.302H100.31V107.09Z" fill="#FC0103"/>
<path d="M108.616 104.996C108.616 108.08 111.25 110.064 114.087 110.064C115.551 110.064 117.077 109.514 117.595 108.768V110.078L120.315 110.068V101.192C120.315 99.4551 117.65 99.5397 117.65 101.097C117.133 100.35 115.573 99.947 114.11 99.947C111.273 99.947 108.616 101.892 108.616 104.996ZM111.903 105.016C111.903 103.68 113.052 102.58 114.583 102.58C116.113 102.58 117.262 103.68 117.262 105.016C117.262 106.351 116.113 107.452 114.583 107.452C113.052 107.452 111.903 106.351 111.903 105.016Z" fill="#FC0103"/>
<path d="M125.948 109.944V97.8077C125.948 96.2684 122.872 96.3183 122.872 97.8077V109.943L125.948 109.944Z" fill="#FC0103"/>
<path d="M128.611 96.4834C128.318 96.4834 128.115 96.6799 128.115 96.9156V109.486C128.115 109.742 128.318 109.938 128.611 109.938H138.567L138.578 107.227H131.492V104.656H137.048C137.34 104.656 137.543 104.44 137.543 104.204V102.475C137.543 102.22 137.34 102.023 137.048 102.023H131.492V99.1945H137.893C138.186 99.1945 138.411 98.998 138.411 98.7426V96.9352C138.411 96.6799 138.186 96.4834 137.893 96.4834H128.611Z" fill="#FC0103"/>
<path d="M148.605 109.546C148.605 109.781 148.853 109.939 149.1 109.939H151.042C151.289 109.939 151.537 109.781 151.537 109.546V104.241C151.537 101.904 150.027 99.791 147.123 99.791C145.411 99.791 143.761 100.24 143.108 100.927C143.108 99.5186 140.531 99.4574 140.531 100.803V109.951L143.44 109.96V104.562C143.44 101.232 148.605 101.763 148.605 104.562V109.546Z" fill="#FC0103"/>
<path d="M172.38 99.708C170.778 99.708 169.467 100.556 168.859 101.401V100.764C168.859 99.578 166.418 99.4522 166.418 100.806V109.911L169.287 109.944V105.302C169.287 103.905 170.337 102.363 171.466 102.199L172.629 102.03C174.482 102.03 174.185 99.708 172.38 99.708Z" fill="#FC0103"/>
<path d="M180.058 111.797C178.572 111.797 177.152 111.723 176.391 111.345C174.567 110.44 173.489 112.428 174.626 113.014C176.162 113.806 176.928 114.196 179.81 114.196C183.502 114.196 185.505 112.372 185.505 109.7V100.803C185.505 99.63 182.951 99.4943 182.951 100.654V101.263C182.411 100.517 180.862 100.096 179.376 100.096C176.539 100.096 173.973 102.021 173.973 105.066C173.973 108.111 176.517 109.997 179.511 109.997C180.952 109.997 182.123 109.447 182.618 108.779V109.602C182.618 110.879 181.791 111.797 180.058 111.797ZM177.26 105.066C177.26 103.73 178.408 102.689 179.916 102.689C181.447 102.689 182.596 103.73 182.596 105.066C182.596 106.422 181.447 107.443 179.916 107.443C178.408 107.443 177.26 106.422 177.26 105.066Z" fill="#FC0103"/>
<path d="M189.4 98.753C190.359 98.753 191.155 98.0222 191.155 97.1635C191.155 96.2865 190.359 95.5557 189.4 95.5557C188.421 95.5557 187.625 96.2865 187.625 97.1635C187.625 98.0222 188.421 98.753 189.4 98.753ZM190.42 109.938C190.665 109.938 190.849 109.755 190.849 109.536V101.294C190.849 99.5544 187.911 99.5549 187.911 101.294V109.536C187.911 109.755 188.115 109.938 188.36 109.938H190.42Z" fill="#FC0103"/>
<path d="M198.488 99.7783C195.044 99.7783 192.564 102.138 192.564 105.066C192.564 107.995 194.998 110.252 198.533 110.252C200.99 110.252 202.444 109.605 203.362 108.547C203.922 107.681 202.606 106.622 201.431 107.228C200.391 107.857 199.681 107.771 198.602 107.771C197.294 107.771 196.146 106.978 195.985 105.737H203.32C203.779 105.737 203.894 105.514 203.894 105.27V104.72C203.894 102.178 202.023 99.7783 198.488 99.7783ZM200.967 103.907H196.054C196.375 102.809 197.386 102.138 198.51 102.138C199.59 102.138 200.669 102.707 200.967 103.907Z" fill="#FC0103"/>
<path d="M209.877 99.7021C206.862 99.7021 204.992 101.131 204.992 102.947C204.992 104.56 206.231 105.56 208.078 105.887L209.947 106.234C211.022 106.417 211.583 106.621 211.583 107.111C211.583 107.54 211.069 107.948 210.017 107.948C208.896 107.948 207.732 107.762 207.007 107.211C205.401 106.466 203.975 108.039 205.577 109.111C206.512 109.683 207.984 110.214 209.901 110.214C213.009 110.214 215.042 108.764 215.042 106.846C215.042 104.989 213.453 104.172 211.513 103.846L209.714 103.539C208.755 103.376 208.405 103.111 208.405 102.723C208.405 102.315 208.989 101.988 209.877 101.988C210.835 101.988 211.644 102.076 212.345 102.484C213.752 103.209 215.195 101.662 213.886 100.686C213.185 100.135 212.144 99.7021 209.877 99.7021Z" fill="#FC0103"/>
<path d="M159.216 99.7783C155.772 99.7783 153.293 102.138 153.293 105.066C153.293 107.995 155.726 110.252 159.262 110.252C161.718 110.252 163.173 109.605 164.091 108.547C164.651 107.681 163.334 106.622 162.16 107.228C161.12 107.857 160.41 107.771 159.331 107.771C158.022 107.771 156.874 106.978 156.714 105.737H164.049C164.508 105.737 164.623 105.514 164.623 105.27V104.72C164.623 102.178 162.752 99.7783 159.216 99.7783ZM161.695 103.907H156.783C157.104 102.809 158.114 102.138 159.239 102.138C160.318 102.138 161.397 102.707 161.695 103.907Z" fill="#FC0103"/>
<defs>
<linearGradient id="paint0_linear_72_569" x1="153.909" y1="41.8735" x2="185.486" y2="80.2753" gradientUnits="userSpaceOnUse">
<stop stop-color="#0186F5"/>
<stop offset="0.13185" stop-color="#0186F5"/>
<stop offset="0.314591" stop-color="#35C2B0"/>
<stop offset="0.666984" stop-color="#AAD825"/>
<stop offset="1" stop-color="#FED700"/>
</linearGradient>
<linearGradient id="paint1_linear_72_569" x1="124.426" y1="79.0804" x2="124.661" y2="57.2184" gradientUnits="userSpaceOnUse">
<stop stop-color="#FF7F00"/>
<stop offset="1" stop-color="#FE0201"/>
</linearGradient>
<linearGradient id="paint2_linear_72_569" x1="154.865" y1="36.4178" x2="194.511" y2="37.2698" gradientUnits="userSpaceOnUse">
<stop stop-color="#0186F5"/>
<stop offset="0.198316" stop-color="#0186F5"/>
<stop offset="1" stop-color="#3156FD"/>
</linearGradient>
<linearGradient id="paint3_linear_72_569" x1="196.685" y1="49.7436" x2="199.726" y2="43.0258" gradientUnits="userSpaceOnUse">
<stop stop-color="#8434D5"/>
<stop offset="0.854207" stop-color="#3156FD"/>
<stop offset="1" stop-color="#3156FD"/>
</linearGradient>
<linearGradient id="paint4_linear_72_569" x1="192.616" y1="53.3333" x2="162.191" y2="54.9471" gradientUnits="userSpaceOnUse">
<stop stop-color="#8434D5"/>
<stop offset="1" stop-color="#FE0201"/>
</linearGradient>
</defs>
</svg>
