<svg width="237" height="143" viewBox="0 0 237 143" fill="none" xmlns="http://www.w3.org/2000/svg">
<g clip-path="url(#clip0_63_1486)">
<path d="M81.7375 87.8929C81.7375 82.5567 79.6161 79.2423 74.948 79.2423C71.0998 79.2423 68.1584 81.6431 66.7592 85.924H66.4246C66.0371 82.082 63.8708 79.2423 59.7319 79.2423C55.5931 79.2423 52.7497 81.7917 51.4543 86.1614H51.1117C50.2478 83.2559 48.6548 80.7803 45.9601 79.8667C45.231 79.6213 44.427 79.4807 43.5331 79.4807H38.5693V84.9505H44.8595V103.946H51.5521V91.6911C51.5671 90.9111 51.656 90.2049 51.8048 89.5656C52.5119 86.4297 54.5963 84.8688 56.7557 84.8688C58.915 84.8688 60.0316 85.8273 60.0316 89.7222V103.947H66.7242V91.4018C67.2076 86.5484 69.7095 84.8618 72.0696 84.8618C74.4296 84.8618 75.0099 86.4965 75.0099 89.7152V97.6676C75.0099 101.488 77.4818 104.134 81.7465 104.349V87.8879L81.7395 87.8949L81.7375 87.8929ZM119.242 98.6541L131.882 85.0313V79.8138H112.497V84.8159H125.308L111.998 99.0411V103.902H132.172V98.6541H119.241H119.242ZM150.56 95.0205V91.3041C149.904 91.9065 149.108 92.1439 147.374 92.6716C144.091 93.5852 142.401 94.44 142.401 96.6104C142.401 98.5354 143.756 99.5976 145.349 99.5976C147.761 99.5976 150.076 97.8153 150.56 95.0205ZM150.44 99.1299C149.316 102.326 146.338 103.953 142.861 103.953C138.231 103.953 135.573 101.783 135.573 97.7853C135.573 93.2072 139.191 91.327 144.216 90.3167C148.369 89.4469 150.201 89.016 150.394 88.4884V87.9608C150.394 85.6497 149.232 84.2523 146.292 84.2523C143.352 84.2523 141.565 85.9839 140.791 87.7673L135.773 85.0692C137.508 81.5015 141.759 79.2872 146.969 79.2872C153.773 79.2872 156.96 82.468 156.96 88.3468V96.1506C156.96 101.16 157.54 103.226 158.359 103.895H151.651C151.071 103.367 150.587 101.881 150.446 99.1378M178.207 79.7999C174.06 79.7999 170.704 82.4231 170.063 87.3803H169.863L170.108 83.2031V79.747H161.57L159.724 84.771H164.488V103.952H170.66V95.0344C170.66 89.5865 171.315 87.1788 176.756 87.1788H178.528V79.7989H178.208L178.207 79.7999ZM100.467 95.0055V91.2822C99.812 91.8846 99.0159 92.122 97.2731 92.6496C93.9832 93.5633 92.2933 94.418 92.2933 96.5964C92.2933 98.5284 93.6486 99.5917 95.2417 99.5917C97.6606 99.5917 99.9758 97.8083 100.46 95.0065M100.348 99.1229C99.2247 102.319 96.2394 103.953 92.7548 103.953C88.1165 103.953 85.4519 101.776 85.4519 97.7704C85.4519 93.1852 89.0773 91.3041 94.1021 90.2867C98.2559 89.417 100.095 88.9861 100.288 88.4515V87.9238C100.288 85.6048 99.1268 84.2075 96.1795 84.2075C93.2322 84.2075 91.4454 85.947 90.6704 87.7303L85.6456 85.0253C87.3874 81.4506 91.6382 79.2363 96.8636 79.2363C103.682 79.2363 106.868 82.4251 106.868 88.3108V96.1296C106.868 101.147 107.448 103.212 108.267 103.889H101.546C100.966 103.361 100.481 101.875 100.34 99.1249M179.897 99.4351L183.723 96.1725C185.079 98.2681 187.036 99.5318 189.515 99.5318C191.242 99.5318 192.597 98.7887 192.597 97.3844C192.597 95.5192 190.17 94.7233 186.665 93.5124C183.672 92.4422 180.776 90.6658 180.776 86.7489C180.776 82.832 184.23 79.755 190.073 79.755C194.652 79.755 197.219 81.4346 198.947 83.7686L195.069 87.1279C194.459 85.9609 192.918 84.2374 190.349 84.2374C188.48 84.2374 187.312 85.166 187.312 86.3848C187.312 88.25 189.791 88.9931 192.686 90.0194C195.999 91.1864 199.177 92.7244 199.177 97.1091C199.177 101.494 195.485 104.103 189.604 104.103C185.584 104.103 181.758 102.52 179.889 99.443" fill="#171C8F"/>
<path d="M88.0285 45.7908C88.0285 43.0559 88.9444 42.0525 91.4902 42.0525C92.6438 42.0525 93.6495 42.246 94.4675 42.4834V37.594C93.5516 37.3566 92.4051 37.0215 89.9491 37.0215C84.5219 37.0215 81.7304 40.2322 81.7304 45.4646V49.203H77.4727L75.582 54.3826H81.7314V73.2298H88.0215V54.3826H93.8133V49.203H88.0215V45.7988L88.0285 45.7918V45.7908ZM112.683 60.7591C112.683 56.0024 111.001 53.3792 107.636 53.3792C104.271 53.3792 102.499 56.0024 102.499 60.7142C102.499 65.426 104.137 68.3245 107.45 68.3245C110.763 68.3245 112.683 65.6115 112.683 60.7591ZM95.7329 60.9007C95.7329 53.8629 100.125 48.5935 107.733 48.5935C115.34 48.5935 119.36 53.3502 119.36 60.6703C119.36 67.9904 114.968 73.163 107.405 73.163C99.8428 73.163 95.7249 68.3624 95.7249 60.9007M142.475 49.188H148.765L154.139 66.6528H154.43L159.708 49.1581H166.103L157.438 73.1859L151.222 73.164L142.475 49.189V49.188ZM139.207 49.2399C135.098 49.2399 131.777 51.8332 131.137 56.7464H130.936L131.182 52.6141V49.188H122.725L120.902 54.1601H125.622V73.156H131.733V64.3199C131.733 58.9238 132.38 56.539 137.77 56.539H139.527V49.2339H139.215L139.208 49.2409L139.207 49.2399ZM163.512 73.1849H169.869L178.632 49.1571H172.274L163.512 73.1849ZM179.897 68.8222L183.723 65.5596C185.078 67.6552 187.036 68.919 189.515 68.919C191.242 68.919 192.597 68.1759 192.597 66.7715C192.597 64.9063 190.17 64.1104 186.665 62.8995C183.672 61.8293 180.776 60.0529 180.776 56.136C180.776 52.2192 184.23 49.1421 190.073 49.1421C194.652 49.1421 197.219 50.8218 198.947 53.1557L195.069 56.515C194.459 55.3481 192.918 53.6245 190.349 53.6245C188.48 53.6245 187.312 54.5531 187.312 55.772C187.312 57.6371 189.791 58.3802 192.686 59.4066C195.999 60.5735 199.177 62.1116 199.177 66.4962C199.177 70.8809 195.485 73.4901 189.604 73.4901C185.584 73.4901 181.758 71.9072 179.889 68.8302" fill="#0072CE"/>
</g>
<defs>
<clipPath id="clip0_63_1486">
<rect width="161.798" height="67.8245" fill="white" transform="translate(37.9736 36.7725)"/>
</clipPath>
</defs>
</svg>
