<?xml version="1.0" encoding="UTF-8" standalone="no"?>
<svg
   enable-background="new 0 0 2497.3 393"
   viewBox="0 0 150 150"
   version="1.1"
   id="svg3"
   sodipodi:docname="logo_9.svg"
   width="150"
   height="150"
   inkscape:version="1.3.2 (091e20e, 2023-11-25)"
   xmlns:inkscape="http://www.inkscape.org/namespaces/inkscape"
   xmlns:sodipodi="http://sodipodi.sourceforge.net/DTD/sodipodi-0.dtd"
   xmlns="http://www.w3.org/2000/svg"
   xmlns:svg="http://www.w3.org/2000/svg">
  <defs
     id="defs3" />
  <sodipodi:namedview
     id="namedview3"
     pagecolor="#505050"
     bordercolor="#ffffff"
     borderopacity="1"
     inkscape:showpageshadow="0"
     inkscape:pageopacity="0"
     inkscape:pagecheckerboard="1"
     inkscape:deskcolor="#505050"
     inkscape:zoom="1.9077568"
     inkscape:cx="95.400003"
     inkscape:cy="77.053848"
     inkscape:window-width="1472"
     inkscape:window-height="839"
     inkscape:window-x="0"
     inkscape:window-y="37"
     inkscape:window-maximized="0"
     inkscape:current-layer="svg3" />
  <g
     id="g4"
     transform="matrix(0.05432662,0,0,0.05432662,6.4425302,110.6683)">
    <path
       d="m 278,270.7 c -19.8,28 -52,44.6 -86.2,44.5 -61.2,0 -107.4,-46.4 -107.4,-107.9 0,-30.8 11.2,-58.6 31.5,-78.3 19.7,-19.1 46.7,-29.6 75.9,-29.6 34.3,-0.1 66.5,16.6 86.2,44.6 l 3.2,4.5 63.7,-54 -3.2,-3.8 C 304.4,46.5 249.5,21 191.7,21.2 86,21.1 0,104.6 0,207.3 0,309.8 86,393 191.7,393 c 57.7,0.3 112.6,-25 149.9,-69 l 3.2,-3.8 -63.7,-54 z"
       fill="#e23a05"
       id="path1" />
    <path
       d="M 652.7,5.5 V 384 h -70.3 v -16.6 c -22.1,13 -50.7,21.1 -79.3,21.1 -75.8,0 -138,-57.2 -138,-141 0,-85.3 62.2,-141 138,-141 27.8,0.1 55,7.2 79.3,20.7 V 5.5 Z M 582.4,301.7 V 192.2 c -16.6,-14 -40.1,-23.1 -66.7,-23.1 -46.7,0 -81.3,33.6 -81.3,78.3 0,46.2 34.6,77.8 81.3,77.8 26.1,0 50.2,-9 66.7,-23.5 z M 712.8,133.4 h 69.8 V 384 h -69.8 z m 142.1,176.8 c 33.6,14.6 59.2,22.1 93.4,22.1 32.1,0 44.7,-12 44.7,-26.1 0,-15.6 -15.6,-22.6 -57.7,-31.6 -58.8,-13 -101.4,-32.1 -101.4,-84.8 0,-49.2 40.7,-83.3 103.9,-83.3 42.7,0 76.8,10 106.4,22.1 l -23.1,51.2 c -26.6,-10 -57.7,-17.6 -84.8,-17.6 -26.6,0 -40.1,9.5 -40.1,24.1 0,15.1 16.6,22.1 60.2,31.1 63.2,13.1 99.9,35.1 99.9,84.8 0,51.7 -39.7,85.8 -109.4,85.8 -47.2,0 -77.8,-6.5 -117.9,-26.1 z m 485.8,23.1 c -24.6,33.6 -63.2,54.7 -105.4,54.7 -82.3,0 -149.1,-62.7 -149.1,-140.5 0,-78.3 66.7,-141 149.1,-141 43.7,0 81.8,21.1 106.4,54.2 l -45.2,41.7 c -13.6,-20.5 -36.6,-32.9 -61.2,-33.1 -44.2,0 -80.3,35.1 -80.3,78.3 0,42.7 36.1,77.8 80.3,77.8 24.8,-0.2 47.8,-12.8 61.2,-33.6 z m 319.1,-85.9 c 0,77.8 -66.7,140.5 -149.1,140.5 -82.4,0 -149.1,-62.7 -149.1,-140.5 0,-78.3 66.7,-141 149.1,-141 82.4,0 149.1,62.7 149.1,141 z m -68.7,0 c 0,-43.2 -35.6,-78.3 -80.3,-78.3 -44.2,0 -80.3,35.1 -80.3,78.3 0,42.7 36.1,77.8 80.3,77.8 44.6,0 80.3,-35.1 80.3,-77.8 z M 1961.9,113.7 V 384 h -69.8 V 365.9 C 1871.4,380 1845.9,388 1817.8,388 1738,388 1701.3,350.9 1701.3,262.5 V 113.7 h 69.8 v 148.8 c 0,42.2 20.7,62.7 59.2,62.7 25.1,0 45.7,-8 61.7,-21.6 v -190 h 69.9 z m 316.7,118.2 V 384 h -69.8 V 231.9 c 0,-42.2 -20.7,-62.7 -59.2,-62.7 -24.6,0 -44.7,8 -60.2,21.6 V 384 h -69.8 V 111.4 h 69.8 v 17.1 c 20.1,-14.1 45.2,-22.1 72.8,-22.1 79.7,0 116.4,37.2 116.4,125.5 z M 2421,169.1 v 96.4 c 0,48.7 8,62.7 43.2,62.7 12,0 22.6,-1.5 32.1,-2.5 v 52.2 c -3,1 -24.1,10 -63.2,10 -45.7,0 -82.3,-28.6 -82.3,-85.8 v -133 h -38.6 v -57.7 h 38.6 V 5.5 h 70.3 v 105.9 h 76.2 v 57.7 z"
       fill="#293847"
       id="path2" />
    <path
       d="m 710.1,41.2 c 0,-22.6 18,-41.2 40.1,-41.2 22.1,0 39.7,18.6 39.7,41.2 0,22.6 -17.6,40.7 -39.7,40.7 -22.3,-0.2 -40.3,-18.4 -40.1,-40.7 z"
       fill="#e23a05"
       id="path3" />
    <rect
       style="opacity:0.8;fill:#293847;fill-opacity:1;stroke-width:0.99435"
       id="rect3"
       width="2507.95"
       height="1571.9344"
       x="-2.4411122e-05"
       y="-1629.0957" />
    <ellipse
       style="opacity:0.8;fill:#ffffff;fill-opacity:1;stroke-width:1.16541"
       id="path4"
       cx="1211.104"
       cy="-867.51868"
       rx="553.74963"
       ry="532.93195" />
    <path
       d="m 1386.6538,-734.99274 c -40.3094,57.00324 -105.8632,90.79802 -175.4886,90.59444 -124.5928,0 -218.64818,-94.46252 -218.64818,-219.66613 0,-62.70356 22.80128,-119.29964 64.12868,-159.40547 40.1058,-38.8844 95.0733,-60.2606 154.5195,-60.2606 69.829,-0.2036 135.3827,33.7948 175.4886,90.79803 l 6.5146,9.16124 129.6824,-109.93477 -6.5146,-7.7362 c -75.9365,-89.9837 -187.7036,-141.8974 -305.3745,-141.4902 -215.18728,-0.2036 -390.26871,169.7882 -390.26871,378.86797 0,208.67265 175.08143,378.05371 390.26871,378.05371 117.4673,0.61075 229.2344,-50.89575 305.1709,-140.47228 l 6.5146,-7.73615 -129.6823,-109.93482 z"
       fill="#e23a05"
       id="path1-2"
       style="stroke-width:2.03583" />
  </g>
</svg>
