<svg width="289" height="143" viewBox="0 0 289 143" fill="none" xmlns="http://www.w3.org/2000/svg">
<g clip-path="url(#clip0_72_570)">
<path d="M99.1971 114.338C98.2839 115.638 96.7989 116.408 95.2216 116.404C92.3991 116.404 90.2684 114.25 90.2684 111.395C90.2684 109.965 90.785 108.674 91.7212 107.76C92.6297 106.873 93.8749 106.385 95.2216 106.385C96.8035 106.381 98.2885 107.156 99.1971 108.456L99.3446 108.665L102.282 106.158L102.135 105.981C100.415 103.929 97.8827 102.746 95.217 102.755C90.3422 102.75 86.376 106.627 86.376 111.395C86.376 116.153 90.3422 120.016 95.217 120.016C97.8781 120.03 100.41 118.855 102.13 116.812L102.278 116.636L99.34 114.129L99.1971 114.338Z" fill="#E23A05"/>
<path d="M116.478 102.025V119.597H113.236V118.826C112.216 119.43 110.897 119.806 109.578 119.806C106.082 119.806 103.214 117.151 103.214 113.26C103.214 109.3 106.082 106.714 109.578 106.714C110.86 106.719 112.115 107.049 113.236 107.675V102.025H116.478ZM113.236 115.776V110.693C112.47 110.043 111.386 109.62 110.159 109.62C108.006 109.62 106.41 111.18 106.41 113.255C106.41 115.4 108.006 116.867 110.159 116.867C111.363 116.867 112.475 116.45 113.236 115.776ZM119.249 107.963H122.469V119.597H119.249V107.963ZM125.803 116.171C127.353 116.849 128.533 117.197 130.11 117.197C131.591 117.197 132.172 116.64 132.172 115.985C132.172 115.261 131.453 114.936 129.511 114.518C126.799 113.915 124.834 113.028 124.834 110.581C124.834 108.297 126.711 106.714 129.626 106.714C131.595 106.714 133.168 107.179 134.533 107.74L133.468 110.117C132.241 109.653 130.807 109.3 129.557 109.3C128.33 109.3 127.708 109.741 127.708 110.419C127.708 111.12 128.473 111.445 130.484 111.863C133.399 112.471 135.091 113.492 135.091 115.8C135.091 118.2 133.26 119.783 130.046 119.783C127.869 119.783 126.458 119.481 124.608 118.571L125.803 116.171ZM148.208 117.243C147.073 118.803 145.293 119.783 143.347 119.783C139.551 119.783 136.47 116.872 136.47 113.26C136.47 109.625 139.546 106.714 143.347 106.714C145.362 106.714 147.119 107.694 148.254 109.23L146.169 111.166C145.542 110.215 144.481 109.639 143.347 109.63C141.308 109.63 139.643 111.259 139.643 113.265C139.643 115.247 141.308 116.877 143.347 116.877C144.49 116.867 145.551 116.282 146.169 115.317L148.208 117.243ZM162.924 113.255C162.924 116.867 159.848 119.778 156.048 119.778C152.248 119.778 149.171 116.867 149.171 113.255C149.171 109.62 152.248 106.71 156.048 106.71C159.848 106.71 162.924 109.62 162.924 113.255ZM159.756 113.255C159.756 111.25 158.114 109.62 156.052 109.62C154.014 109.62 152.349 111.25 152.349 113.255C152.349 115.238 154.014 116.867 156.052 116.867C158.109 116.867 159.756 115.238 159.756 113.255ZM176.857 107.049V119.597H173.638V118.757C172.683 119.411 171.507 119.783 170.211 119.783C166.531 119.783 164.838 118.06 164.838 113.957V107.049H168.057V113.957C168.057 115.916 169.012 116.867 170.787 116.867C171.945 116.867 172.895 116.496 173.633 115.865V107.044H176.857V107.049ZM191.463 112.536V119.597H188.243V112.536C188.243 110.577 187.289 109.625 185.513 109.625C184.379 109.625 183.452 109.996 182.737 110.628V119.597H179.518V106.942H182.737V107.736C183.664 107.081 184.821 106.71 186.094 106.71C189.77 106.71 191.463 108.437 191.463 112.536ZM198.03 109.62V114.096C198.03 116.357 198.399 117.007 200.022 117.007C200.576 117.007 201.065 116.937 201.503 116.891V119.314C201.364 119.36 200.391 119.778 198.588 119.778C196.48 119.778 194.792 118.45 194.792 115.795V109.62H193.012V106.942H194.792V102.025H198.035V106.942H201.549V109.62H198.03Z" fill="#293847"/>
<path d="M119.125 103.683C119.125 102.634 119.955 101.771 120.974 101.771C121.994 101.771 122.805 102.634 122.805 103.683C122.805 104.732 121.994 105.573 120.974 105.573C119.946 105.563 119.116 104.718 119.125 103.683Z" fill="#E23A05"/>
<path opacity="0.8" d="M202.04 26.1406H86.376V99.117H202.04V26.1406Z" fill="#293847"/>
<path opacity="0.8" d="M142.231 86.2381C156.335 86.2381 167.769 75.1611 167.769 61.497C167.769 47.8328 156.335 36.7559 142.231 36.7559C128.126 36.7559 116.692 47.8328 116.692 61.497C116.692 75.1611 128.126 86.2381 142.231 86.2381Z" fill="white"/>
<path d="M150.327 67.6484C148.468 70.2947 145.445 71.8636 142.234 71.8542C136.488 71.8542 132.15 67.4688 132.15 61.6563C132.15 58.7453 133.202 56.1178 135.107 54.2559C136.957 52.4508 139.492 51.4584 142.234 51.4584C145.454 51.4489 148.477 53.0273 150.327 55.6736L150.628 56.0989L156.608 50.9953L156.308 50.6361C152.806 46.4587 147.651 44.0486 142.224 44.0675C132.3 44.058 124.226 51.9498 124.226 61.6563C124.226 71.3438 132.3 79.2072 142.224 79.2072C147.642 79.2356 152.796 76.8444 156.299 72.6859L156.599 72.3267L150.618 67.2231L150.327 67.6484Z" fill="#E23A05"/>
</g>
<defs>
<clipPath id="clip0_72_570">
<rect width="118" height="94" fill="white" transform="translate(86 26)"/>
</clipPath>
</defs>
</svg>
