<svg width="276" height="143" viewBox="0 0 276 143" fill="none" xmlns="http://www.w3.org/2000/svg">
<g clip-path="url(#clip0_62_1337)">
<mask id="mask0_62_1337" style="mask-type:luminance" maskUnits="userSpaceOnUse" x="36" y="40" width="204" height="62">
<path d="M239.131 40.9316H36.085V101.253H239.131V40.9316Z" fill="white"/>
</mask>
<g mask="url(#mask0_62_1337)">
<path d="M96.9816 101.253H36.085V40.9316H96.9816V101.253Z" fill="url(#paint0_linear_62_1337)"/>
<path d="M40.842 41.9941C39.6615 41.9941 38.889 42.9818 38.7067 44.365C38.7067 44.365 37.1855 52.2825 37.1855 69.0967C37.1855 85.9184 38.7067 96.9248 38.7067 96.9248C38.8456 98.2553 39.6615 99.2945 40.842 99.2945H93.5512C94.7273 99.2945 95.6647 98.3703 95.6865 96.9248C95.6865 96.9248 95.0984 84.0323 95.0984 71.4428C95.0984 58.8524 95.6865 44.365 95.6865 44.365C95.7136 43.0764 94.7273 41.9941 93.5512 41.9941H40.842Z" fill="url(#paint1_linear_62_1337)"/>
<path d="M70.4431 48.0451C72.1065 48.7362 78.7879 52.3161 79.6071 53.4575C76.2458 53.8992 69.6511 55.5983 66.0988 57.3104L65.8916 57.7263C69.8084 56.8719 75.2823 56.4248 79.058 56.2228C77.6476 58.269 76.7145 59.246 74.5716 61.5631L74.372 62.0124C78.4581 59.5813 79.6071 59.4061 83.3731 57.2223C84.7967 59.3072 85.1373 64.108 85.1937 67.9136C86.4176 65.4999 87.9062 56.4044 87.2867 54.7611C89.7854 53.063 90.1229 51.6949 90.1229 51.6949C87.8336 51.8916 86.5706 51.9292 85.3348 52.3161C82.4096 50.5385 75.7011 48.1934 70.6374 47.626L70.4431 48.0451Z" fill="url(#paint2_linear_62_1337)"/>
<path d="M45.4982 76.3092C45.1662 79.3399 45.0317 81.5077 45.4711 83.9301C44.2321 84.2708 43.1471 84.3191 42.1499 84.7394L41.959 85.1543C43.5474 86.1247 44.8396 86.8684 46.6364 87.6992C47.5966 89.7433 48.5894 91.1222 50.1985 92.6956L50.3959 92.2743C50.1063 91.1126 49.7308 90.1528 49.873 88.8824C51.8682 89.4585 53.5815 89.7637 55.8567 89.8325L56.0477 89.4113C54.048 88.6428 52.0495 88.0366 50.4296 86.5255C50.9406 85.1231 51.5221 84.0236 52.4726 82.634L52.6733 82.2083C50.9558 82.4642 49.3967 83.0875 47.9113 83.3744C46.7384 81.3336 46.2838 78.5425 45.6935 75.8857L45.4982 76.3092Z" fill="url(#paint3_linear_62_1337)"/>
<path d="M55.6935 62.4809C55.6935 62.4809 54.4067 62.3605 52.2791 62.424C50.4813 62.5057 47.797 62.6647 46.495 63.043L46.3029 63.4589C48.3774 63.547 51.2169 64.0974 52.3062 65.1784C52.3062 65.1784 49.1554 67.9922 46.0371 74.1472C46.0371 74.1472 51.6932 68.8905 54.1453 67.588C54.1453 67.588 55.4277 71.8203 56.3197 73.9408L56.5149 73.5173C56.7623 72.1556 57.3753 68.4617 58.4191 66.2017C58.4191 66.2017 58.7879 65.9791 60.5966 65.8062C62.4098 65.6438 64.9725 65.5493 69.8409 66.3972L70.0383 65.9814C68.9273 65.3321 64.4972 63.4514 59.8079 62.8248H59.962C60.6065 60.9494 61.4093 59.5361 61.4093 59.5361C60.4155 59.6758 57.587 60.9859 55.6935 62.4809Z" fill="url(#paint4_linear_62_1337)"/>
<path d="M67.5426 88.4525C67.4731 87.6303 67.42 86.9318 67.3777 86.0065C66.3935 87.3283 65.5538 88.3677 64.4688 89.5757C63.3198 89.8926 62.0069 89.8787 60.8101 89.8647C60.3371 89.8604 59.8836 89.855 59.4648 89.8701L59.2705 90.2904C60.3848 90.8588 61.4764 91.2059 62.6426 91.4436C61.6976 92.2958 60.4326 92.9449 59.5472 93.5392L59.3498 93.9531C61.2528 93.5081 63.757 92.7085 65.6232 91.6165C66.5943 91.6595 67.5014 91.595 68.1664 91.4651C68.1664 91.4651 68.3661 91.034 68.3661 91.0448C68.2445 90.6193 67.8626 90.3591 67.7499 89.7637C69.4988 88.4192 70.765 87.194 72.2287 85.7366L72.4316 85.3154C70.9863 86.3019 69.233 87.6594 67.5426 88.4525Z" fill="url(#paint5_linear_62_1337)"/>
<mask id="mask1_62_1337" style="mask-type:luminance" maskUnits="userSpaceOnUse" x="20" y="25" width="235" height="92">
<path d="M20.8496 25.8525H254.348V116.333H20.8496V25.8525Z" fill="white"/>
</mask>
<g mask="url(#mask1_62_1337)">
<path d="M83.5672 56.7967C79.8087 58.9848 78.6575 59.1697 74.5703 61.5921C76.9507 59.0342 77.7786 57.9466 79.2509 55.8058C75.4838 56.0036 70.0079 56.4527 66.0986 57.3093C69.5023 55.5092 76.2477 53.508 79.8087 53.0319C78.983 51.9023 72.2994 48.317 70.6372 47.626C75.9276 48.0333 82.3964 49.9925 85.531 51.8916C86.7646 51.509 88.0482 51.4907 90.3429 51.2887C89.7581 52.2839 89.7343 52.8588 87.4807 54.3376C88.1057 55.9916 86.6148 65.0818 85.3835 67.4892C85.3389 63.6868 85.0025 58.8838 83.5672 56.7967Z" fill="white"/>
</g>
<mask id="mask2_62_1337" style="mask-type:luminance" maskUnits="userSpaceOnUse" x="20" y="25" width="235" height="92">
<path d="M20.8496 25.8525H254.348V116.333H20.8496V25.8525Z" fill="white"/>
</mask>
<g mask="url(#mask2_62_1337)">
<path d="M56.0483 89.4113C53.8891 88.618 52.3332 87.6938 50.6211 86.1085C51.1343 84.7071 51.7191 83.612 52.6727 82.2083C50.9172 82.4673 49.6229 82.664 48.1104 82.9468C46.8789 80.8134 46.3201 78.7531 45.6941 75.8857C45.3578 78.925 45.2308 81.0949 45.6637 83.5131C44.2749 83.8956 43.2919 84.2289 42.1494 84.7394C43.7509 85.7099 45.0431 86.4568 46.8301 87.2822C47.7914 89.3231 48.7842 90.702 50.3954 92.2753C50.0178 90.9352 49.918 89.8701 50.0731 88.4633C52.0695 89.0394 53.7795 89.3424 56.0483 89.4113Z" fill="white"/>
</g>
<mask id="mask3_62_1337" style="mask-type:luminance" maskUnits="userSpaceOnUse" x="20" y="25" width="235" height="92">
<path d="M20.8496 25.8525H254.348V116.333H20.8496V25.8525Z" fill="white"/>
</mask>
<g mask="url(#mask3_62_1337)">
<path d="M61.6715 59.1748C60.9989 60.0399 60.2186 61.6531 60.0083 62.4023C65.5732 63.1492 70.0401 65.981 70.0401 65.981C65.1728 65.1255 62.6079 65.232 60.7916 65.3932C58.9873 65.5619 58.6162 65.7725 58.6162 65.7725C57.3043 68.6227 56.5156 73.516 56.5156 73.516C55.6314 71.4009 54.351 67.1654 54.351 67.1654C51.8957 68.4669 46.2461 73.7288 46.2461 73.7288C49.3513 67.5674 52.5033 64.7645 52.5033 64.7645C51.4194 63.6769 48.5756 63.1341 46.4956 63.0427C47.5752 62.6064 50.3452 62.0959 52.4739 61.9981C54.6038 61.939 55.8928 62.0583 55.8928 62.0583C57.7926 60.5719 60.6777 59.3198 61.6715 59.1748Z" fill="white"/>
</g>
<mask id="mask4_62_1337" style="mask-type:luminance" maskUnits="userSpaceOnUse" x="20" y="25" width="235" height="92">
<path d="M20.8496 25.8525H254.348V116.333H20.8496V25.8525Z" fill="white"/>
</mask>
<g mask="url(#mask4_62_1337)">
<path d="M67.5762 85.5917C66.5943 86.9125 65.748 87.9486 64.6586 89.1555C62.786 89.6768 61.2919 89.8702 59.4648 89.8702C60.5855 90.443 61.6716 90.7858 62.8413 91.0288C61.6716 92.0767 60.6833 92.8236 59.5472 93.5393C61.4514 93.0922 63.9535 92.2927 65.8164 91.2007C66.7896 91.2394 67.6999 91.1771 68.3672 91.046C68.1926 90.4871 68.0862 90.0701 67.9451 89.3425C69.6985 87.997 70.9723 86.7793 72.4316 85.3154C70.8779 86.3892 69.5379 87.1909 67.7401 88.0324C67.6631 87.2114 67.6185 86.517 67.5762 85.5917Z" fill="white"/>
</g>
<mask id="mask5_62_1337" style="mask-type:luminance" maskUnits="userSpaceOnUse" x="20" y="25" width="235" height="92">
<path d="M20.8496 25.8525H254.348V116.333H20.8496V25.8525Z" fill="white"/>
</mask>
<g mask="url(#mask5_62_1337)">
<path d="M110.467 59.345C110.467 52.7365 115.755 47.9668 124.472 47.9668C126.518 47.9668 128.501 48.2785 130.421 48.746L129.098 52.3925C127.871 51.6757 126.36 51.0835 124.409 51.0835C118.681 51.0835 116.699 55.5727 116.699 59.4073C116.699 64.738 120.003 67.4194 124.441 67.4194C127.211 67.4194 129.287 66.1415 131.145 64.5198L131.176 69.1336C129.287 69.8816 126.959 70.5373 123.465 70.5373C115.471 70.5373 110.467 65.6118 110.467 59.345Z" fill="#1D1D1B"/>
</g>
<mask id="mask6_62_1337" style="mask-type:luminance" maskUnits="userSpaceOnUse" x="20" y="25" width="235" height="92">
<path d="M20.8496 25.8525H254.348V116.333H20.8496V25.8525Z" fill="white"/>
</mask>
<g mask="url(#mask6_62_1337)">
<path d="M148.29 62.1512C146.842 58.7216 145.584 55.7908 145.143 54.7623C144.135 56.8827 143.034 59.3761 141.87 62.1512C142.814 62.1822 144.105 62.2135 145.143 62.2135C146.15 62.2135 147.22 62.1822 148.29 62.1512ZM143.506 48.3408H147.755C148.604 50.5849 155.843 66.5468 157.542 70.1621H151.469C151.122 69.1649 150.398 67.3572 149.454 65.0185C148.195 64.9884 146.905 64.9561 145.112 64.9561C143.443 64.9561 142.184 64.9884 140.737 65.0185C140.044 66.8585 139.477 68.5414 138.974 70.1621H133.687C134.945 67.4507 142.342 51.5511 143.506 48.3408Z" fill="#1D1D1B"/>
</g>
<mask id="mask7_62_1337" style="mask-type:luminance" maskUnits="userSpaceOnUse" x="20" y="25" width="235" height="92">
<path d="M20.8496 25.8525H254.348V116.333H20.8496V25.8525Z" fill="white"/>
</mask>
<g mask="url(#mask7_62_1337)">
<path d="M161.062 58.7217C161.062 54.9182 161.031 50.3667 160.748 48.3408H170.347C174.973 48.3408 180.481 49.6187 180.481 54.6689C180.481 57.5061 178.812 59.4074 175.507 60.4047C175.98 61.3408 181.298 69.3518 182.18 70.1632H175.603C174.154 67.4506 170.882 61.9641 168.491 58.41C168.9 58.5035 169.496 58.5658 170.19 58.5658C172.11 58.5658 174.815 57.1945 174.815 54.6689C174.815 51.5199 170.976 50.9589 169.055 50.9589C168.081 50.9589 167.136 51.0212 166.664 51.0835C166.538 53.7962 166.475 57.1945 166.475 58.7217C166.475 60.6541 166.475 67.1078 166.821 70.1632H160.684C160.998 67.1389 161.062 63.242 161.062 58.7217Z" fill="#1D1D1B"/>
</g>
<mask id="mask8_62_1337" style="mask-type:luminance" maskUnits="userSpaceOnUse" x="20" y="25" width="235" height="92">
<path d="M20.8496 25.8525H254.348V116.333H20.8496V25.8525Z" fill="white"/>
</mask>
<g mask="url(#mask8_62_1337)">
<path d="M201.214 59.1269C201.214 52.7365 198.382 50.9277 193 51.0524L191.584 51.0835C191.459 52.5183 191.426 56.2273 191.426 58.7528C191.426 61.933 191.426 64.4264 191.553 67.3883C191.869 67.4195 192.372 67.4818 193.126 67.4818C198.445 67.4818 201.214 65.8299 201.214 59.1269ZM185.95 58.7528C185.95 56.6335 185.95 51.1781 185.636 48.3408H194.165C203.449 48.3408 207.005 53.1728 207.005 59.2204C207.005 65.4559 203.543 70.1632 193.819 70.1632H185.636C185.95 67.2324 185.95 63.2108 185.95 58.7528Z" fill="#1D1D1B"/>
</g>
<mask id="mask9_62_1337" style="mask-type:luminance" maskUnits="userSpaceOnUse" x="20" y="25" width="235" height="92">
<path d="M20.8496 25.8525H254.348V116.333H20.8496V25.8525Z" fill="white"/>
</mask>
<g mask="url(#mask9_62_1337)">
<path d="M210.651 58.7519C210.651 56.6325 210.525 50.8655 210.366 48.3398H216.411C216.222 50.8655 216.096 56.6013 216.096 58.7519C216.096 60.6541 216.128 67.138 216.411 70.1623H210.305C210.619 67.138 210.651 60.6541 210.651 58.7519Z" fill="#1D1D1B"/>
</g>
<mask id="mask10_62_1337" style="mask-type:luminance" maskUnits="userSpaceOnUse" x="20" y="25" width="235" height="92">
<path d="M20.8496 25.8525H254.348V116.333H20.8496V25.8525Z" fill="white"/>
</mask>
<g mask="url(#mask10_62_1337)">
<path d="M222.607 58.7519C222.607 56.6325 222.449 50.8655 222.261 48.3398H239.13V51.4888C237.398 51.3942 233.087 51.2706 231.639 51.2706C230.569 51.2706 229.373 51.2706 228.144 51.3631C228.051 52.7043 228.02 54.3873 228.02 55.8533C228.02 56.5702 228.02 57.2247 228.051 57.7545L235.73 57.6299V61.0281L228.051 60.7165C228.083 63.4904 228.114 67.7925 228.397 70.1623H222.229C222.607 67.138 222.607 60.6541 222.607 58.7519Z" fill="#1D1D1B"/>
</g>
<mask id="mask11_62_1337" style="mask-type:luminance" maskUnits="userSpaceOnUse" x="20" y="25" width="235" height="92">
<path d="M20.8496 25.8525H254.348V116.333H20.8496V25.8525Z" fill="white"/>
</mask>
<g mask="url(#mask11_62_1337)">
<path d="M112.381 84.0742C112.381 82.7716 112.305 79.0638 112.204 77.5107H123.382V79.7902C121.866 79.6152 120.601 79.5893 119.286 79.5893H116.377C116.326 80.692 116.326 82.1955 116.326 83.2219L121.005 83.0961V85.3768L116.301 85.3015C116.301 86.5794 116.301 88.1077 116.377 89.2844H119.259C120.449 89.2844 122.725 89.2093 123.762 89.0598V91.2888H112.178C112.356 89.4102 112.381 85.3015 112.381 84.0742Z" fill="#1D1D1B"/>
</g>
<mask id="mask12_62_1337" style="mask-type:luminance" maskUnits="userSpaceOnUse" x="20" y="25" width="235" height="92">
<path d="M20.8496 25.8525H254.348V116.333H20.8496V25.8525Z" fill="white"/>
</mask>
<g mask="url(#mask12_62_1337)">
<path d="M126.745 84.0742C126.745 82.7211 126.669 79.0638 126.568 77.5107H130.842C130.741 79.0638 130.665 82.7459 130.665 84.0742C130.665 85.0016 130.69 87.3812 130.741 89.2844H132.487C134.586 89.2844 136.179 89.1845 137.798 89.0341V91.2888H126.542C126.745 89.1845 126.745 85.2521 126.745 84.0742Z" fill="#1D1D1B"/>
</g>
<mask id="mask13_62_1337" style="mask-type:luminance" maskUnits="userSpaceOnUse" x="20" y="25" width="235" height="92">
<path d="M20.8496 25.8525H254.348V116.333H20.8496V25.8525Z" fill="white"/>
</mask>
<g mask="url(#mask13_62_1337)">
<path d="M157.179 84.0483C157.179 80.1911 154.802 79.4635 152.374 79.4635C151.969 79.4635 151.464 79.5139 151.084 79.5387C151.008 80.5157 151.008 82.3448 151.008 83.7979C151.008 85.7775 151.008 87.5798 151.084 89.3339C151.312 89.3844 152.272 89.3844 152.475 89.3844C155.105 89.3844 157.179 88.1065 157.179 84.0483ZM147.063 83.7979C147.063 82.52 147.063 79.5139 146.834 77.5107H152.829C158.924 77.5107 161.099 80.291 161.099 84.1235C161.099 88.057 159.101 91.2876 152.905 91.2876H146.834C147.063 89.2586 147.063 86.503 147.063 83.7979Z" fill="#1D1D1B"/>
</g>
<mask id="mask14_62_1337" style="mask-type:luminance" maskUnits="userSpaceOnUse" x="20" y="25" width="235" height="92">
<path d="M20.8496 25.8525H254.348V116.333H20.8496V25.8525Z" fill="white"/>
</mask>
<g mask="url(#mask14_62_1337)">
<path d="M161.98 94.1692V92.6913C162.461 92.8418 162.512 92.8418 162.613 92.8418C164.535 92.8418 164.712 91.1878 164.712 88.7836C164.712 84.0484 164.686 79.9644 164.535 77.5107H168.784C168.683 79.0627 168.607 82.7447 168.607 84.0484V88.3569C168.607 90.5623 168.86 94.2197 162.79 94.2197C162.512 94.2197 162.283 94.2197 161.98 94.1692Z" fill="#1D1D1B"/>
</g>
<mask id="mask15_62_1337" style="mask-type:luminance" maskUnits="userSpaceOnUse" x="20" y="25" width="235" height="92">
<path d="M20.8496 25.8525H254.348V116.333H20.8496V25.8525Z" fill="white"/>
</mask>
<g mask="url(#mask15_62_1337)">
<path d="M179.582 86.705L177.686 82.1461H177.634C177.332 82.922 176.522 84.8006 175.789 86.705C176.321 86.7545 176.977 86.7803 177.659 86.7803C178.418 86.7803 179.026 86.7545 179.582 86.705ZM176.649 77.5107H179.531C180.063 79.1637 184.642 89.0598 185.703 91.2888H181.377C181.15 90.6633 180.795 89.7606 180.391 88.7589C179.582 88.7342 178.494 88.7094 177.659 88.7094C176.826 88.7094 175.814 88.7589 175.004 88.7836C174.599 89.8605 174.246 90.788 174.094 91.2888H170.553C171.336 89.5854 175.814 79.715 176.649 77.5107Z" fill="#1D1D1B"/>
</g>
<mask id="mask16_62_1337" style="mask-type:luminance" maskUnits="userSpaceOnUse" x="20" y="25" width="235" height="92">
<path d="M20.8496 25.8525H254.348V116.333H20.8496V25.8525Z" fill="white"/>
</mask>
<g mask="url(#mask16_62_1337)">
<path d="M186.711 89.911L193.994 79.6398C193.237 79.5893 192.403 79.5389 191.592 79.5389C190.151 79.5389 188.885 79.615 187.317 79.7645V77.5107H198.726V78.7876L191.263 89.2844C193.616 89.2844 196.904 89.2092 198.826 89.0588V91.2878H186.711V89.911Z" fill="#1D1D1B"/>
</g>
<mask id="mask17_62_1337" style="mask-type:luminance" maskUnits="userSpaceOnUse" x="20" y="25" width="235" height="92">
<path d="M20.8496 25.8525H254.348V116.333H20.8496V25.8525Z" fill="white"/>
</mask>
<g mask="url(#mask17_62_1337)">
<path d="M208.864 86.705L206.965 82.1461H206.914C206.612 82.922 205.802 84.8006 205.069 86.705C205.601 86.7545 206.257 86.7803 206.941 86.7803C207.699 86.7803 208.307 86.7545 208.864 86.705ZM205.929 77.5107H208.813C209.344 79.1637 213.921 89.0598 214.984 91.2888H210.658C210.432 90.6633 210.077 89.7606 209.673 88.7589C208.864 88.7342 207.775 88.7094 206.941 88.7094C206.106 88.7094 205.094 88.7589 204.284 88.7836C203.881 89.8605 203.527 90.788 203.375 91.2888H199.834C200.617 89.5854 205.094 79.715 205.929 77.5107Z" fill="#1D1D1B"/>
</g>
<mask id="mask18_62_1337" style="mask-type:luminance" maskUnits="userSpaceOnUse" x="20" y="25" width="235" height="92">
<path d="M20.8496 25.8525H254.348V116.333H20.8496V25.8525Z" fill="white"/>
</mask>
<g mask="url(#mask18_62_1337)">
<path d="M220.243 74.7045C220.243 73.8522 220.95 73.1504 222.139 73.1504C223.329 73.1504 224.036 73.8522 224.036 74.7045C224.036 75.5568 223.329 76.2575 222.139 76.2575C220.95 76.2575 220.243 75.5568 220.243 74.7045ZM217.283 84.0741C217.283 82.7704 217.181 79.0636 217.08 77.5106H221.356C221.254 79.0636 221.179 82.7457 221.179 84.0741C221.179 85.3014 221.179 89.41 221.356 91.2887H217.004C217.257 89.1844 217.283 85.2509 217.283 84.0741ZM214.298 74.7045C214.298 73.8522 214.982 73.1504 216.171 73.1504C217.333 73.1504 218.042 73.8522 218.042 74.7045C218.042 75.5568 217.333 76.2575 216.171 76.2575C214.982 76.2575 214.298 75.5568 214.298 74.7045Z" fill="#1D1D1B"/>
</g>
<mask id="mask19_62_1337" style="mask-type:luminance" maskUnits="userSpaceOnUse" x="20" y="25" width="235" height="92">
<path d="M20.8496 25.8525H254.348V116.333H20.8496V25.8525Z" fill="white"/>
</mask>
<g mask="url(#mask19_62_1337)">
<path d="M225.297 84.0483C225.297 81.7429 225.272 78.9132 225.069 77.5107H231.343C234.327 77.5107 237.894 78.5876 237.894 81.7936C237.894 83.5216 236.478 84.9747 234.606 85.5014C235.112 86.4289 238.299 90.5622 238.981 91.2876H234.428C233.289 89.3091 231.444 86.0527 230.18 84.3739C230.457 84.4245 230.761 84.4739 231.065 84.4739C232.581 84.4739 233.973 83.6722 233.973 81.7688C233.973 79.8654 232 79.4388 230.256 79.4388C229.902 79.4388 229.597 79.4388 229.294 79.4635C229.218 81.1422 229.193 83.1466 229.193 84.0483C229.193 85.2509 229.193 89.1833 229.421 91.2876H225.02C225.247 89.2338 225.297 86.8286 225.297 84.0483Z" fill="#1D1D1B"/>
</g>
</g>
</g>
<defs>
<linearGradient id="paint0_linear_62_1337" x1="66.5331" y1="39.4483" x2="66.5331" y2="103.123" gradientUnits="userSpaceOnUse">
<stop stop-color="#00774A"/>
<stop offset="0.6" stop-color="#8BCAAE"/>
<stop offset="1" stop-color="#00975F"/>
</linearGradient>
<linearGradient id="paint1_linear_62_1337" x1="66.4364" y1="25.9489" x2="66.4364" y2="97.5018" gradientUnits="userSpaceOnUse">
<stop stop-color="#00975F"/>
<stop offset="0.3" stop-color="#8BCAAE"/>
<stop offset="0.55" stop-color="#00975F"/>
<stop offset="0.835165" stop-color="#00774A"/>
<stop offset="0.878523" stop-color="#00774A"/>
<stop offset="1" stop-color="#00A071"/>
</linearGradient>
<linearGradient id="paint2_linear_62_1337" x1="78.0078" y1="93.5508" x2="78.0078" y2="47.2471" gradientUnits="userSpaceOnUse">
<stop stop-color="#00A97C"/>
<stop offset="1" stop-color="#00975F"/>
</linearGradient>
<linearGradient id="paint3_linear_62_1337" x1="49.0037" y1="93.5531" x2="49.0037" y2="47.2357" gradientUnits="userSpaceOnUse">
<stop stop-color="#00A97C"/>
<stop offset="1" stop-color="#00975F"/>
</linearGradient>
<linearGradient id="paint4_linear_62_1337" x1="58.0381" y1="93.5433" x2="58.0381" y2="47.254" gradientUnits="userSpaceOnUse">
<stop stop-color="#00A97C"/>
<stop offset="1" stop-color="#00975F"/>
</linearGradient>
<linearGradient id="paint5_linear_62_1337" x1="65.8505" y1="93.5498" x2="65.8505" y2="47.2459" gradientUnits="userSpaceOnUse">
<stop stop-color="#00A97C"/>
<stop offset="1" stop-color="#00975F"/>
</linearGradient>
<clipPath id="clip0_62_1337">
<rect width="203.046" height="60.3215" fill="white" transform="translate(36.085 40.9316)"/>
</clipPath>
</defs>
</svg>
