<svg width="289" height="143" viewBox="0 0 289 143" fill="none" xmlns="http://www.w3.org/2000/svg">
<path d="M179.989 39.1887C184.53 39.1887 188.111 35.5413 188.111 31.0255C188.111 26.5097 184.443 22.9492 179.989 22.9492C175.448 22.9492 171.78 26.5966 171.78 31.0255C171.692 35.5413 175.448 39.1887 179.989 39.1887Z" fill="#E30613"/>
<path d="M136.656 29.4074C136.656 24.8916 140.412 21.3311 144.866 21.3311C149.407 21.3311 152.988 24.9784 152.988 29.4074C152.988 34.01 149.32 37.5705 144.866 37.5705C140.412 37.6574 136.656 34.01 136.656 29.4074Z" fill="#E30613"/>
<path d="M188.208 45.4472C188.121 45.3604 188.033 45.3604 187.946 45.3604C186.723 44.5788 185.239 44.2314 183.841 44.2314C183.317 44.2314 182.793 44.2314 182.269 44.2314H169.606C163.318 44.2314 160.349 48.313 160.349 52.3078C160.349 56.2157 162.707 58.0393 163.842 58.8209C165.938 60.2972 167.772 60.3841 169.519 60.4709H175.545V81.4867C175.632 82.963 175.632 84.7867 176.593 86.5235C177.815 88.6946 180.435 90.5183 183.754 90.5183C185.151 90.5183 188.645 90.1709 190.566 86.6104C191.789 84.5262 191.876 82.6157 191.876 80.7051V53.6972C191.963 53.263 191.876 52.742 191.876 52.2209C191.963 50.8314 191.701 47.3578 188.208 45.4472Z" fill="#E30613"/>
<path d="M85.3295 101.2C85.3295 100.766 85.3295 100.332 85.5915 99.8975C86.1155 98.7686 87.1635 98.7686 87.6875 98.7686H96.0715C96.4209 98.7686 96.9449 98.8554 97.2942 99.1159C97.7309 99.3765 98.0802 99.9843 98.0802 100.505C98.0802 101.026 97.8182 101.548 97.3815 101.895C96.9449 102.242 96.4209 102.242 96.0715 102.242H89.8709V104.934H95.0235C95.4602 104.934 95.9842 105.021 96.5082 105.282C97.2069 105.716 97.2069 106.324 97.2069 106.584C97.2069 106.932 97.1195 107.192 97.0322 107.453C96.5955 108.321 95.7222 108.408 95.2855 108.408H89.8709V112.576C89.8709 113.011 89.7835 113.619 89.4342 114.14C89.1722 114.574 88.5609 115.095 87.5129 115.095C86.7269 115.095 86.1155 114.834 85.6789 114.226C85.2422 113.619 85.2422 113.098 85.2422 112.576V101.2H85.3295Z" fill="#B2B2B2"/>
<path d="M110.481 108.928C110.481 113.184 107.687 115.181 104.106 115.181C101.224 115.181 100.001 113.965 99.4773 113.357C98.3419 112.055 97.9053 110.578 97.9053 108.842C97.9053 104.413 101.049 102.676 104.281 102.676C108.909 102.676 110.481 105.889 110.481 108.928ZM102.185 108.842C102.185 109.623 102.272 112.055 104.193 112.055C106.027 112.055 106.202 110.057 106.202 109.102C106.202 108.234 106.027 107.452 105.765 106.844C105.503 106.323 105.067 105.802 104.193 105.802C102.272 105.715 102.185 108.147 102.185 108.842Z" fill="#B2B2B2"/>
<path d="M111.791 105.281C111.791 104.76 111.878 103.805 112.577 103.197C112.839 102.936 113.363 102.763 113.8 102.763C114.062 102.763 114.411 102.763 114.673 102.936C115.808 103.371 115.896 104.413 115.896 104.847C115.983 104.673 115.983 104.5 116.07 104.413C116.507 103.631 117.468 102.85 118.69 102.85C120 102.85 120.612 103.718 120.612 104.847C120.612 105.628 120.262 106.584 119.04 106.671C118.865 106.671 117.904 106.757 117.642 106.757C116.158 106.931 116.07 108.147 116.07 108.755V112.142C116.07 112.576 116.07 113.01 115.896 113.444C115.634 114.486 114.76 115.007 113.887 115.007C113.363 115.007 112.752 114.747 112.402 114.4C111.791 113.792 111.791 112.923 111.791 112.402V105.281Z" fill="#B2B2B2"/>
<path d="M121.311 105.368C121.311 104.673 121.398 103.544 122.359 103.023C122.621 102.85 122.97 102.763 123.319 102.763C123.669 102.763 124.018 102.85 124.28 103.023C125.241 103.631 125.328 104.586 125.328 105.021C125.415 104.934 125.415 104.76 125.503 104.673C125.677 104.326 126.638 102.763 129.171 102.763C130.044 102.763 130.917 103.023 131.616 103.544C132.14 103.978 132.315 104.413 132.489 104.847C132.664 104.5 132.839 104.152 133.363 103.718C133.887 103.284 134.76 102.763 136.332 102.763C137.293 102.763 138.166 103.023 138.865 103.631C139.913 104.586 140 105.715 140 107.018V112.576C140 113.01 139.913 113.531 139.563 114.052C139.127 114.66 138.515 115.007 137.817 115.007C137.293 115.007 136.943 114.834 136.594 114.573C135.808 113.965 135.721 113.184 135.721 112.663V108.06C135.721 107.365 135.721 107.278 135.633 107.105C135.459 106.497 134.935 106.236 134.323 106.236C133.887 106.236 133.537 106.41 133.275 106.671C132.839 107.105 132.839 107.626 132.839 108.321V112.663C132.839 113.271 132.839 113.965 132.227 114.573C131.878 114.921 131.354 115.181 130.83 115.181C130.393 115.181 129.957 115.007 129.607 114.747C128.647 114.052 128.647 112.923 128.647 112.228V107.973C128.647 107.365 128.559 106.236 127.249 106.236C126.987 106.236 126.638 106.323 126.463 106.41C125.765 106.844 125.765 107.626 125.765 108.06V112.663C125.765 113.184 125.677 113.705 125.328 114.226C124.891 114.834 124.28 115.094 123.669 115.094C123.145 115.094 122.621 114.834 122.184 114.486C121.573 113.878 121.485 113.097 121.485 112.576V105.368H121.311Z" fill="#B2B2B2"/>
<path d="M152.663 113.011C152.663 113.619 152.576 115.008 150.829 115.008C149.345 115.008 149.083 113.966 148.908 113.445C148.297 114.14 147.336 115.008 144.978 115.008C142.533 115.008 141.048 113.792 141.048 111.448C141.048 108.756 143.144 108.061 144.716 107.714C145.153 107.627 147.249 107.192 147.685 107.106C147.947 107.019 148.559 106.932 148.559 106.324C148.559 105.803 148.122 105.369 147.161 105.369C146.375 105.369 145.764 105.456 145.415 106.064C145.327 106.237 145.24 106.324 145.153 106.498C144.891 106.845 144.367 107.279 143.581 107.279C142.707 107.279 141.659 106.671 141.659 105.629C141.659 104.935 142.183 103.719 144.105 103.024C145.065 102.677 146.026 102.59 146.899 102.59C148.559 102.59 152.663 102.764 152.663 106.932V113.011ZM148.646 109.277C147.598 109.624 147.336 109.711 146.375 109.971C145.939 110.058 145.065 110.319 145.065 111.014C145.065 111.187 145.065 111.969 146.288 111.969C147.336 111.969 148.035 111.448 148.559 111.014V109.277H148.646Z" fill="#B2B2B2"/>
<path d="M155.633 101.807C155.633 101.2 155.72 100.592 156.244 99.9838C156.419 99.7233 156.943 99.2891 157.729 99.2891C158.777 99.2891 159.825 99.9838 159.825 101.547V102.936H160.698C161.659 102.936 162.183 103.457 162.183 104.326C162.183 104.76 162.008 105.194 161.659 105.455C161.31 105.802 160.698 105.802 159.738 105.715V110.405C159.738 110.752 159.738 111.1 160.262 111.273C160.349 111.273 160.96 111.36 161.135 111.36C161.572 111.534 162.096 112.055 162.096 112.923C162.096 114.834 160 114.834 159.65 114.834C159.039 114.834 158.428 114.747 157.904 114.66C155.546 114.052 155.458 112.315 155.458 110.926C155.458 109.536 155.546 107.192 155.546 105.802C154.76 105.802 154.498 105.802 154.236 105.715C153.624 105.542 153.362 104.934 153.362 104.326C153.362 104.152 153.362 104.065 153.45 103.892C153.712 103.023 154.41 103.023 154.76 103.023H155.633V101.807Z" fill="#B2B2B2"/>
<path d="M163.143 99.8107C163.143 98.5949 164.103 97.6396 165.326 97.6396C166.549 97.6396 167.509 98.5949 167.509 99.8107C167.509 101.026 166.549 101.982 165.326 101.982C164.103 101.982 163.143 101.026 163.143 99.8107ZM163.143 105.195C163.143 104.761 163.23 104.24 163.579 103.719C163.754 103.458 164.278 102.85 165.326 102.85C166.374 102.85 167.509 103.632 167.509 105.282V112.403C167.509 112.924 167.509 113.445 167.16 113.966C166.636 114.921 165.763 115.008 165.326 115.008C164.453 115.008 163.754 114.574 163.405 113.966C163.143 113.532 163.143 113.011 163.143 112.663V105.195Z" fill="#B2B2B2"/>
<path d="M181.308 108.928C181.308 113.184 178.514 115.181 174.933 115.181C172.051 115.181 170.828 113.965 170.304 113.357C169.169 112.055 168.732 110.578 168.732 108.842C168.732 104.413 171.876 102.676 175.108 102.676C179.736 102.676 181.308 105.889 181.308 108.928ZM173.012 108.842C173.012 109.623 173.099 112.055 175.02 112.055C176.854 112.055 177.029 110.057 177.029 109.102C177.029 108.234 176.854 107.452 176.592 106.844C176.33 106.323 175.894 105.802 175.02 105.802C173.099 105.715 173.012 108.147 173.012 108.842Z" fill="#B2B2B2"/>
<path d="M182.619 105.107C182.619 104.673 182.619 104.239 182.881 103.805C183.23 103.197 183.842 102.763 184.628 102.763C185.239 102.763 185.676 103.023 186.025 103.371C186.462 103.892 186.549 104.326 186.636 104.673C186.898 104.326 187.073 104.065 187.51 103.718C188.296 103.023 189.344 102.676 190.479 102.676C191.614 102.676 192.662 103.11 193.361 103.978C194.06 104.76 194.147 105.542 194.147 106.323V112.489C194.147 113.01 194.06 113.444 193.798 114.052C193.448 114.66 192.75 114.921 192.051 114.921C191.352 114.921 190.828 114.66 190.392 114.052C189.955 113.444 189.955 112.923 189.955 112.402V107.713C189.955 107.365 189.955 107.018 189.78 106.584C189.518 106.149 189.082 105.889 188.558 105.889C188.208 105.889 187.859 106.063 187.597 106.236C186.986 106.757 186.986 107.626 186.986 108.494V112.489C186.986 112.836 186.898 113.444 186.549 113.965C186.2 114.573 185.501 114.834 184.802 114.834C183.929 114.834 183.23 114.313 182.968 113.705C182.794 113.271 182.706 112.836 182.706 112.402V105.107H182.619Z" fill="#B2B2B2"/>
<path d="M155.807 53.3497V80.705C155.72 82.7892 155.458 85.7418 153.013 88.0866C151.528 89.476 149.432 90.3445 147.511 90.3445C145.065 90.3445 142.62 89.0418 141.135 86.8708C139.738 84.8734 139.476 82.9629 139.476 81.0524V63.6839C139.389 62.0339 139.301 59.0813 136.681 57.4313C135.895 56.9102 134.847 56.6497 133.712 56.6497C128.909 56.6497 128.472 61.1655 128.472 63.2497V79.3155C128.472 81.8339 128.472 86.0892 124.804 88.7813C123.494 89.7366 121.835 90.3445 120.001 90.3445C117.73 90.3445 115.809 89.3892 114.499 88.1734C112.141 85.9155 112.053 83.3102 112.053 80.9655V64.2918C112.053 61.8602 111.879 59.776 110.307 58.126C109.259 56.9971 107.949 56.476 106.289 56.476C104.106 56.476 102.097 57.7787 101.399 59.9497C101.049 60.905 100.962 61.2524 100.962 63.7708V81.3129C100.962 83.3102 100.7 86.3497 97.5559 88.6945C96.2459 89.7366 94.6739 90.3445 92.7526 90.3445C90.2199 90.3445 87.6872 89.2155 86.2026 86.7839C84.9799 84.8734 84.8926 82.9629 84.8926 81.226V60.2102C84.8926 55.4339 85.1546 51.005 89.1719 47.4445C91.7919 45.0129 95.2852 44.0576 98.8659 44.0576C104.717 44.0576 107.949 46.055 110.045 47.7918C111.966 49.4418 112.665 50.6576 113.363 51.9602C114.062 50.3971 114.761 48.7471 116.769 47.0102C119.389 44.926 122.621 44.0576 125.939 44.0576C135.633 44.0576 139.039 49.876 139.738 51.1787C139.913 50.0497 140.262 48.9208 141.135 47.6181C141.921 46.4892 143.843 44.1445 147.685 44.1445C151.703 44.1445 155.807 47.0971 155.807 53.3497ZM153.537 61.5997C153.711 61.426 154.061 61.0787 154.061 60.3839C154.061 59.776 153.711 59.255 153.187 58.9076C152.751 58.7339 152.401 58.7339 152.052 58.7339L148.209 58.8208C148.733 58.4734 149.17 58.0392 149.694 57.6918C151.877 55.955 153.799 53.9576 153.799 51.3524C153.799 49.0945 152.139 46.4892 148.384 46.4892C144.367 46.4892 142.969 49.6155 142.969 51.0918C142.969 52.5681 144.017 52.9155 144.716 52.9155C145.327 52.9155 145.939 52.5681 146.288 52.0471C146.463 51.7866 146.55 51.526 146.637 51.2655C146.899 50.6576 147.161 49.7892 148.384 49.7892C149.257 49.7892 149.956 50.3971 149.956 51.3524C149.956 52.4813 149.17 53.6971 147.685 55.0866C146.637 56.0418 145.589 56.8234 144.454 57.6918C143.406 58.5602 142.882 58.9945 142.882 60.0366C142.882 60.4708 142.969 61.426 144.017 61.7734C144.367 61.9471 144.803 61.9471 145.327 61.9471H152.314C152.751 62.0339 153.1 62.0339 153.537 61.5997Z" fill="#B2B2B2"/>
<path d="M154.148 60.0003C154.148 60.695 153.799 61.0424 153.624 61.2161C153.187 61.6503 152.751 61.6503 152.314 61.6503H145.327C144.803 61.6503 144.454 61.6503 144.017 61.4766C142.969 61.0424 142.882 60.0871 142.882 59.7398C142.882 58.7845 143.493 58.2634 144.454 57.395C145.502 56.5266 146.637 55.6582 147.685 54.7897C149.257 53.4003 149.956 52.2713 149.956 51.0555C149.956 50.1003 149.257 49.4924 148.384 49.4924C147.161 49.4924 146.899 50.274 146.637 50.9687C146.55 51.2292 146.463 51.4897 146.288 51.7503C145.939 52.2713 145.415 52.6187 144.716 52.6187C144.017 52.6187 142.969 52.1845 142.969 50.795C142.969 49.3187 144.454 46.1924 148.384 46.1924C152.139 46.1924 153.799 48.7976 153.799 51.0555C153.799 53.6608 151.877 55.6582 149.694 57.395C149.257 57.8292 148.733 58.1766 148.209 58.524L152.052 58.4371C152.401 58.4371 152.751 58.4371 153.187 58.6108C153.799 58.8713 154.148 59.3924 154.148 60.0003Z" fill="white"/>
</svg>
