<?xml version="1.0" encoding="UTF-8" standalone="no"?>
<svg
   enable-background="new 0 0 125.3 104.1"
   viewBox="0 0 150 150"
   version="1.1"
   id="svg14"
   sodipodi:docname="logo_10.svg"
   width="150"
   height="150"
   inkscape:version="1.3.2 (091e20e, 2023-11-25)"
   xmlns:inkscape="http://www.inkscape.org/namespaces/inkscape"
   xmlns:sodipodi="http://sodipodi.sourceforge.net/DTD/sodipodi-0.dtd"
   xmlns="http://www.w3.org/2000/svg"
   xmlns:svg="http://www.w3.org/2000/svg">
  <defs
     id="defs14" />
  <sodipodi:namedview
     id="namedview14"
     pagecolor="#505050"
     bordercolor="#ffffff"
     borderopacity="1"
     inkscape:showpageshadow="0"
     inkscape:pageopacity="0"
     inkscape:pagecheckerboard="1"
     inkscape:deskcolor="#505050"
     inkscape:zoom="2.2670509"
     inkscape:cx="62.63644"
     inkscape:cy="51.829448"
     inkscape:window-width="1472"
     inkscape:window-height="770"
     inkscape:window-x="0"
     inkscape:window-y="37"
     inkscape:window-maximized="0"
     inkscape:current-layer="svg14" />
  <path
     d="m 120.21653,28.945339 c 5.2,0 9.3,-4.2 9.3,-9.4 0,-5.2 -4.2,-9.3 -9.3,-9.3 -5.2,0 -9.4,4.2 -9.4,9.3 -0.1,5.2 4.2,9.4 9.4,9.4 z"
     fill="#e30613"
     id="path1" />
  <path
     d="m 70.598729,17.680932 c 0,-5.2 4.3,-9.2999999 9.4,-9.2999999 5.2,0 9.3,4.1999999 9.3,9.2999999 0,5.3 -4.2,9.4 -9.3,9.4 -5.1,0.1 -9.4,-4.1 -9.4,-9.4 z"
     fill="#e30613"
     id="path2" />
  <path
     d="m 129.62754,36.150847 c -0.1,-0.1 -0.2,-0.1 -0.3,-0.1 -1.4,-0.9 -3.1,-1.3 -4.7,-1.3 -0.6,0 -1.2,0 -1.8,0 h -14.5 c -7.2,0 -10.599998,4.7 -10.599998,9.3 0,4.5 2.699998,6.6 3.999998,7.5 2.4,1.7 4.5,1.8 6.5,1.9 h 6.9 v 24.2 c 0.1,1.7 0.1,3.8 1.2,5.8 1.4,2.5 4.4,4.6 8.2,4.6 1.6,0 5.6,-0.4 7.8,-4.5 1.4,-2.4 1.5,-4.6 1.5,-6.8 v -31.1 c 0.1,-0.5 0,-1.1 0,-1.7 0.1,-1.6 -0.2,-5.6 -4.2,-7.8 z"
     fill="#e30613"
     id="path3" />
  <g
     fill="#b2b2b2"
     id="g13"
     transform="translate(11.027542,12.350847)">
    <path
       d="m 0.8,88 c 0,-0.5 0,-1 0.3,-1.5 0.6,-1.3 1.8,-1.3 2.4,-1.3 h 9.6 c 0.4,0 1,0.1 1.4,0.4 0.5,0.3 0.9,1 0.9,1.6 0,0.6 -0.3,1.2 -0.8,1.6 -0.5,0.4 -1.1,0.4 -1.5,0.4 H 6 v 3.1 h 5.9 c 0.5,0 1.1,0.1 1.7,0.4 0.8,0.5 0.8,1.2 0.8,1.5 0,0.4 -0.1,0.7 -0.2,1 -0.5,1 -1.5,1.1 -2,1.1 H 6 v 4.8 c 0,0.5 -0.1,1.2 -0.5,1.8 -0.3,0.5 -1,1.1 -2.2,1.1 -0.9,0 -1.6,-0.3 -2.1,-1 -0.5,-0.7 -0.5,-1.3 -0.5,-1.9 V 88 Z"
       id="path4" />
    <path
       d="m 29.6,96.9 c 0,4.9 -3.2,7.2 -7.3,7.2 -3.3,0 -4.7,-1.4 -5.3,-2.1 -1.3,-1.5 -1.8,-3.2 -1.8,-5.2 0,-5.1 3.6,-7.1 7.3,-7.1 5.3,0 7.1,3.7 7.1,7.2 z m -9.5,-0.1 c 0,0.9 0.1,3.7 2.3,3.7 2.1,0 2.3,-2.3 2.3,-3.4 0,-1 -0.2,-1.9 -0.5,-2.6 -0.3,-0.6 -0.8,-1.2 -1.8,-1.2 -2.2,-0.1 -2.3,2.7 -2.3,3.5 z"
       id="path5" />
    <path
       d="m 31.1,92.7 c 0,-0.6 0.1,-1.7 0.9,-2.4 0.3,-0.3 0.9,-0.5 1.4,-0.5 0.3,0 0.7,0 1,0.2 1.3,0.5 1.4,1.7 1.4,2.2 0.1,-0.2 0.1,-0.4 0.2,-0.5 0.5,-0.9 1.6,-1.8 3,-1.8 1.5,0 2.2,1 2.2,2.3 0,0.9 -0.4,2 -1.8,2.1 -0.2,0 -1.3,0.1 -1.6,0.1 C 36.1,94.6 36,96 36,96.7 v 3.9 c 0,0.5 0,1 -0.2,1.5 -0.3,1.2 -1.3,1.8 -2.3,1.8 -0.6,0 -1.3,-0.3 -1.7,-0.7 -0.7,-0.7 -0.7,-1.7 -0.7,-2.3 z"
       id="path6" />
    <path
       d="m 42,92.8 c 0,-0.8 0.1,-2.1 1.2,-2.7 0.3,-0.2 0.7,-0.3 1.1,-0.3 0.4,0 0.8,0.1 1.1,0.3 1.1,0.7 1.2,1.8 1.2,2.3 0.1,-0.1 0.1,-0.3 0.2,-0.4 0.2,-0.4 1.3,-2.2 4.2,-2.2 1,0 2,0.3 2.8,0.9 0.6,0.5 0.8,1 1,1.5 0.2,-0.4 0.4,-0.8 1,-1.3 0.6,-0.5 1.6,-1.1 3.4,-1.1 1.1,0 2.1,0.3 2.9,1 1.2,1.1 1.3,2.4 1.3,3.9 v 6.4 c 0,0.5 -0.1,1.1 -0.5,1.7 -0.5,0.7 -1.2,1.1 -2,1.1 -0.6,0 -1,-0.2 -1.4,-0.5 -0.9,-0.7 -1,-1.6 -1,-2.2 v -5.3 c 0,-0.8 0,-0.9 -0.1,-1.1 -0.2,-0.7 -0.8,-1 -1.5,-1 -0.5,0 -0.9,0.2 -1.2,0.5 -0.5,0.5 -0.5,1.1 -0.5,1.9 v 5 c 0,0.7 0,1.5 -0.7,2.2 -0.4,0.4 -1,0.7 -1.6,0.7 -0.5,0 -1,-0.2 -1.4,-0.5 -1.1,-0.8 -1.1,-2.1 -1.1,-2.9 v -4.9 c 0,-0.7 -0.1,-2 -1.6,-2 -0.3,0 -0.7,0.1 -0.9,0.2 -0.8,0.5 -0.8,1.4 -0.8,1.9 v 5.3 c 0,0.6 -0.1,1.2 -0.5,1.8 -0.5,0.7 -1.2,1 -1.9,1 -0.6,0 -1.2,-0.3 -1.7,-0.7 -0.7,-0.7 -0.8,-1.6 -0.8,-2.2 v -8.3 z"
       id="path7" />
    <path
       d="m 77.9,101.6 c 0,0.7 -0.1,2.3 -2.1,2.3 -1.7,0 -2,-1.2 -2.2,-1.8 -0.7,0.8 -1.8,1.8 -4.5,1.8 -2.8,0 -4.5,-1.4 -4.5,-4.1 0,-3.1 2.4,-3.9 4.2,-4.3 0.5,-0.1 2.9,-0.6 3.4,-0.7 0.3,-0.1 1,-0.2 1,-0.9 0,-0.6 -0.5,-1.1 -1.6,-1.1 -0.9,0 -1.6,0.1 -2,0.8 -0.1,0.2 -0.2,0.3 -0.3,0.5 -0.3,0.4 -0.9,0.9 -1.8,0.9 -1,0 -2.2,-0.7 -2.2,-1.9 0,-0.8 0.6,-2.2 2.8,-3 1.1,-0.4 2.2,-0.5 3.2,-0.5 1.9,0 6.6,0.2 6.6,5 z m -4.6,-4.3 c -1.2,0.4 -1.5,0.5 -2.6,0.8 -0.5,0.1 -1.5,0.4 -1.5,1.2 0,0.2 0,1.1 1.4,1.1 1.2,0 2,-0.6 2.6,-1.1 v -2 z"
       id="path8" />
    <path
       d="m 81.3,88.7 c 0,-0.7 0.1,-1.4 0.7,-2.1 0.2,-0.3 0.8,-0.8 1.7,-0.8 1.2,0 2.4,0.8 2.4,2.6 V 90 h 1 c 1.1,0 1.7,0.6 1.7,1.6 0,0.5 -0.2,1 -0.6,1.3 -0.4,0.4 -1.1,0.4 -2.2,0.3 v 5.4 c 0,0.4 0,0.8 0.6,1 0.1,0 0.8,0.1 1,0.1 0.5,0.2 1.1,0.8 1.1,1.8 0,2.2 -2.4,2.2 -2.8,2.2 -0.7,0 -1.4,-0.1 -2,-0.2 -2.7,-0.7 -2.8,-2.7 -2.8,-4.3 0,-1.6 0.1,-4.3 0.1,-5.9 -0.9,0 -1.2,0 -1.5,-0.1 -0.7,-0.2 -1,-0.9 -1,-1.6 0,-0.2 0,-0.3 0.1,-0.5 0.3,-1 1.1,-1 1.5,-1 h 1 z"
       id="path9" />
    <path
       d="m 89.9,86.4 c 0,-1.4 1.1,-2.5 2.5,-2.5 1.4,0 2.5,1.1 2.5,2.5 0,1.4 -1.1,2.5 -2.5,2.5 -1.4,0 -2.5,-1.1 -2.5,-2.5 z m 0,6.2 c 0,-0.5 0.1,-1.1 0.5,-1.7 0.2,-0.3 0.8,-1 2,-1 1.2,0 2.5,0.9 2.5,2.8 v 8.2 c 0,0.6 0,1.2 -0.4,1.8 -0.6,1.1 -1.6,1.2 -2.1,1.2 -1,0 -1.8,-0.5 -2.2,-1.2 -0.3,-0.5 -0.3,-1.1 -0.3,-1.5 z"
       id="path10" />
    <path
       d="m 110.7,96.9 c 0,4.9 -3.2,7.2 -7.3,7.2 -3.3,0 -4.7,-1.4 -5.3,-2.1 -1.3,-1.5 -1.8,-3.2 -1.8,-5.2 0,-5.1 3.6,-7.1 7.3,-7.1 5.3,0 7.1,3.7 7.1,7.2 z m -9.5,-0.1 c 0,0.9 0.1,3.7 2.3,3.7 2.1,0 2.3,-2.3 2.3,-3.4 0,-1 -0.2,-1.9 -0.5,-2.6 -0.3,-0.6 -0.8,-1.2 -1.8,-1.2 -2.2,-0.1 -2.3,2.7 -2.3,3.5 z"
       id="path11" />
    <path
       d="m 112.2,92.5 c 0,-0.5 0,-1 0.3,-1.5 0.4,-0.7 1.1,-1.2 2,-1.2 0.7,0 1.2,0.3 1.6,0.7 0.5,0.6 0.6,1.1 0.7,1.5 0.3,-0.4 0.5,-0.7 1,-1.1 0.9,-0.8 2.1,-1.2 3.4,-1.2 1.3,0 2.5,0.5 3.3,1.5 0.8,0.9 0.9,1.8 0.9,2.7 v 7.1 c 0,0.6 -0.1,1.1 -0.4,1.8 -0.4,0.7 -1.2,1 -2,1 -0.8,0 -1.4,-0.3 -1.9,-1 -0.5,-0.7 -0.5,-1.3 -0.5,-1.9 v -5.4 c 0,-0.4 0,-0.8 -0.2,-1.3 -0.3,-0.5 -0.8,-0.8 -1.4,-0.8 -0.4,0 -0.8,0.2 -1.1,0.4 -0.7,0.6 -0.7,1.6 -0.7,2.6 v 4.6 c 0,0.4 -0.1,1.1 -0.5,1.7 -0.4,0.7 -1.2,1 -2,1 -1,0 -1.8,-0.6 -2.1,-1.3 -0.2,-0.5 -0.3,-1 -0.3,-1.5 v -8.4 z"
       id="path12" />
    <path
       d="m 81.5,32.9 v 31.5 c -0.1,2.4 -0.4,5.8 -3.2,8.5 -1.7,1.6 -4.1,2.6 -6.3,2.6 -2.8,0 -5.6,-1.5 -7.3,-4 -1.6,-2.3 -1.9,-4.5 -1.9,-6.7 v -20 c -0.1,-1.9 -0.2,-5.3 -3.2,-7.2 -0.9,-0.6 -2.1,-0.9 -3.4,-0.9 -5.5,0 -6,5.2 -6,7.6 v 18.5 c 0,2.9 0,7.8 -4.2,10.9 -1.5,1.1 -3.4,1.8 -5.5,1.8 -2.6,0 -4.8,-1.1 -6.3,-2.5 -2.7,-2.6 -2.8,-5.6 -2.8,-8.3 V 45.5 c 0,-2.8 -0.2,-5.2 -2,-7.1 -1.2,-1.3 -2.7,-1.9 -4.6,-1.9 -2.5,0 -4.8,1.5 -5.6,4 -0.4,1.1 -0.5,1.5 -0.5,4.4 v 20.2 c 0,2.3 -0.3,5.8 -3.9,8.5 -1.5,1.2 -3.3,1.9 -5.5,1.9 C 6.4,75.5 3.5,74.2 1.8,71.4 0.4,69.2 0.3,67 0.3,65 V 40.8 c 0,-5.5 0.3,-10.6 4.9,-14.7 3,-2.8 7,-3.9 11.1,-3.9 6.7,0 10.4,2.3 12.8,4.3 2.2,1.9 3,3.3 3.8,4.8 0.8,-1.8 1.6,-3.7 3.9,-5.7 3,-2.4 6.7,-3.4 10.5,-3.4 11.1,0 15,6.7 15.8,8.2 0.2,-1.3 0.6,-2.6 1.6,-4.1 0.9,-1.3 3.1,-4 7.5,-4 4.6,0 9.3,3.4 9.3,10.6 z m -2.6,9.5 c 0.2,-0.2 0.6,-0.6 0.6,-1.4 0,-0.7 -0.4,-1.3 -1,-1.7 -0.5,-0.2 -0.9,-0.2 -1.3,-0.2 l -4.4,0.1 c 0.6,-0.4 1.1,-0.9 1.7,-1.3 2.5,-2 4.7,-4.3 4.7,-7.3 C 79.2,28 77.3,25 73,25 c -4.6,0 -6.2,3.6 -6.2,5.3 0,1.7 1.2,2.1 2,2.1 0.7,0 1.4,-0.4 1.8,-1 0.2,-0.3 0.3,-0.6 0.4,-0.9 0.3,-0.7 0.6,-1.7 2,-1.7 1,0 1.8,0.7 1.8,1.8 0,1.3 -0.9,2.7 -2.6,4.3 -1.2,1.1 -2.4,2 -3.7,3 -1.2,1 -1.8,1.5 -1.8,2.7 0,0.5 0.1,1.6 1.3,2 0.4,0.2 0.9,0.2 1.5,0.2 h 8 c 0.5,0.1 0.9,0.1 1.4,-0.4 z"
       id="path13" />
  </g>
  <path
     d="m 90.627542,52.909746 c 0,0.8 -0.4,1.2 -0.6,1.4 -0.5,0.5 -1,0.5 -1.5,0.5 h -8 c -0.6,0 -1,0 -1.5,-0.2 -1.2,-0.5 -1.3,-1.6 -1.3,-2 0,-1.1 0.7,-1.7 1.8,-2.7 1.2,-1 2.5,-2 3.7,-3 1.8,-1.6 2.6,-2.9 2.6,-4.3 0,-1.1 -0.8,-1.8 -1.8,-1.8 -1.4,0 -1.7,0.9 -2,1.7 -0.1,0.3 -0.2,0.6 -0.4,0.9 -0.4,0.6 -1,1 -1.8,1 -0.8,0 -2,-0.5 -2,-2.1 0,-1.7 1.7,-5.3 6.2,-5.3 4.3,0 6.2,3 6.2,5.6 0,3 -2.2,5.3 -4.7,7.3 -0.5,0.5 -1.1,0.9 -1.7,1.3 l 4.4,-0.1 c 0.4,0 0.8,0 1.3,0.2 0.7,0.3 1.1,0.9 1.1,1.6 z"
     fill="#ffffff"
     id="path14" />
</svg>
